<?xml version="1.0" encoding="utf-8"?>
<!-- Generator: Adobe Illustrator 14.0.0, SVG Export Plug-In . SVG Version: 6.00 Build 43363)  -->
<!DOCTYPE svg PUBLIC "-//W3C//DTD SVG 1.1//EN" "http://www.w3.org/Graphics/SVG/1.1/DTD/svg11.dtd">
<svg version="1.1" id="Layer_1" xmlns="http://www.w3.org/2000/svg" xmlns:xlink="http://www.w3.org/1999/xlink" x="0px" y="0px"
	 width="1920px" height="1080px" viewBox="0 0 1920 1080" enable-background="new 0 0 1920 1080" xml:space="preserve">
<polygon fill="none" stroke="#FFFFFF" stroke-linecap="round" stroke-linejoin="round" stroke-miterlimit="10" points="
	524.855,240.77 453.25,240.77 502.38,208.83 573.985,208.83 "/>
<polyline fill="none" stroke="#FFFFFF" stroke-linecap="round" stroke-linejoin="round" stroke-miterlimit="10" points="
	453.25,283.219 453.25,289.856 524.855,289.856 573.985,257.917 573.985,252.26 "/>
<polygon fill="none" stroke="#FFFFFF" stroke-linecap="round" stroke-linejoin="round" stroke-miterlimit="10" points="
	453.25,280.054 524.855,280.054 573.985,248.114 573.985,232.144 524.855,264.084 453.25,264.084 "/>
<polyline fill="none" stroke="#FFFFFF" stroke-linecap="round" stroke-linejoin="round" stroke-miterlimit="10" points="
	458.052,142.061 466.564,136.528 538.168,136.528 489.038,168.467 417.433,168.467 450.734,146.818 "/>
<polyline fill="none" stroke="#FFFFFF" stroke-linecap="round" stroke-linejoin="round" stroke-miterlimit="10" points="
	417.434,175.813 489.038,175.813 538.168,143.873 538.168,156.771 "/>
<polyline fill="none" stroke="#FFFFFF" stroke-linecap="round" stroke-linejoin="round" stroke-miterlimit="10" points="
	507.342,205.655 538.168,185.615 538.168,205.827 "/>
<polygon fill="none" stroke="#FFFFFF" stroke-linecap="round" stroke-linejoin="round" stroke-miterlimit="10" points="
	417.434,207.752 489.038,207.752 538.168,175.813 538.168,159.842 489.038,191.782 417.434,191.782 "/>
<line fill="none" stroke="#FFFFFF" stroke-linecap="round" stroke-linejoin="round" stroke-miterlimit="10" x1="449.013" y1="270.048" x2="417.434" y2="270.048"/>
<polyline fill="none" stroke="#FFFFFF" stroke-linecap="round" stroke-linejoin="round" stroke-miterlimit="10" points="
	483.253,215.957 417.434,215.957 417.434,238.083 "/>
<polyline fill="none" stroke="#FFFFFF" stroke-linecap="round" stroke-linejoin="round" stroke-miterlimit="10" points="
	449.013,244.275 417.434,244.275 417.434,260.245 449.013,260.245 "/>
<polyline fill="none" stroke="#FFFFFF" stroke-linecap="round" stroke-linejoin="round" stroke-miterlimit="10" points="
	573.985,223.931 573.985,216.174 524.855,248.114 453.25,248.114 453.25,259.993 "/>
<polygon fill="none" stroke="#FFFFFF" stroke-linecap="round" stroke-linejoin="round" stroke-miterlimit="10" points="
	589.243,301.227 517.639,301.227 566.768,269.287 638.373,269.287 "/>
<line fill="none" stroke="#FFFFFF" stroke-linecap="round" stroke-linejoin="round" stroke-miterlimit="10" x1="453.25" y1="240.77" x2="453.25" y2="244.819"/>
<line fill="none" stroke="#FFFFFF" stroke-linecap="round" stroke-linejoin="round" stroke-miterlimit="10" x1="573.985" y1="208.83" x2="573.985" y2="213.259"/>
<line fill="none" stroke="#FFFFFF" stroke-linecap="round" stroke-linejoin="round" stroke-miterlimit="10" x1="538.168" y1="136.528" x2="538.168" y2="140.956"/>
<rect x="275.464" y="136.867" fill="none" stroke="#FFFFFF" stroke-linecap="round" stroke-linejoin="round" stroke-miterlimit="10" width="124.673" height="165.848"/>
<rect x="285.464" y="146.866" fill="#FFFFFF" width="104.673" height="145.848"/>
<polygon fill="#04C3F4" points="359.874,154.282 315.728,154.282 305.721,133.865 369.879,133.865 "/>
<g>
	<defs>
		<rect id="SVGID_1_" width="1920" height="1080"/>
	</defs>
	<clipPath id="SVGID_2_">
		<use xlink:href="#SVGID_1_"  overflow="visible"/>
	</clipPath>
	<path clip-path="url(#SVGID_2_)" fill="#04C3F4" d="M328.917,136.867v-8.883c0-4.907,3.978-8.884,8.883-8.884
		c4.907,0,8.884,3.977,8.884,8.884v8.883H328.917z"/>
	<path clip-path="url(#SVGID_2_)" fill="#00468B" d="M342.555,127.983c0,2.65-2.148,4.799-4.799,4.799s-4.799-2.149-4.799-4.799
		c0-2.651,2.148-4.799,4.799-4.799S342.555,125.333,342.555,127.983"/>
	
		<rect x="301.822" y="178.141" clip-path="url(#SVGID_2_)" fill="none" stroke="#00468B" stroke-linecap="round" stroke-linejoin="round" stroke-miterlimit="10" width="28.01" height="28.01"/>
	
		<line clip-path="url(#SVGID_2_)" fill="none" stroke="#00468B" stroke-linecap="round" stroke-linejoin="round" stroke-miterlimit="10" x1="338.415" y1="178.141" x2="358.839" y2="178.141"/>
	
		<line clip-path="url(#SVGID_2_)" fill="none" stroke="#00468B" stroke-linecap="round" stroke-linejoin="round" stroke-miterlimit="10" x1="338.415" y1="206.392" x2="358.839" y2="206.392"/>
	
		<line clip-path="url(#SVGID_2_)" fill="none" stroke="#00468B" stroke-linecap="round" stroke-linejoin="round" stroke-miterlimit="10" x1="338.415" y1="187.19" x2="369.447" y2="187.19"/>
	
		<line clip-path="url(#SVGID_2_)" fill="none" stroke="#00468B" stroke-linecap="round" stroke-linejoin="round" stroke-miterlimit="10" x1="338.415" y1="195.862" x2="371.873" y2="195.862"/>
	
		<line clip-path="url(#SVGID_2_)" fill="none" stroke="#00468B" stroke-linecap="round" stroke-linejoin="round" stroke-miterlimit="10" x1="301.822" y1="222.437" x2="362.179" y2="222.437"/>
	
		<line clip-path="url(#SVGID_2_)" fill="none" stroke="#00468B" stroke-linecap="round" stroke-linejoin="round" stroke-miterlimit="10" x1="301.822" y1="233.147" x2="369.183" y2="233.147"/>
	
		<line clip-path="url(#SVGID_2_)" fill="none" stroke="#00468B" stroke-linecap="round" stroke-linejoin="round" stroke-miterlimit="10" x1="301.822" y1="243.858" x2="368.182" y2="243.858"/>
	
		<line clip-path="url(#SVGID_2_)" fill="none" stroke="#00468B" stroke-linecap="round" stroke-linejoin="round" stroke-miterlimit="10" x1="301.822" y1="254.569" x2="355.031" y2="254.569"/>
	
		<line clip-path="url(#SVGID_2_)" fill="none" stroke="#00468B" stroke-linecap="round" stroke-linejoin="round" stroke-miterlimit="10" x1="301.822" y1="265.28" x2="363.444" y2="265.28"/>
	
		<rect x="1005.774" y="239.479" clip-path="url(#SVGID_2_)" fill="none" stroke="#00BDF1" stroke-linecap="round" stroke-linejoin="round" stroke-miterlimit="10" width="31.083" height="4"/>
	
		<polyline clip-path="url(#SVGID_2_)" fill="none" stroke="#FFFFFF" stroke-linecap="round" stroke-linejoin="round" stroke-miterlimit="10" points="
		1066.338,286.46 1100.61,286.46 1109.613,302.963 974.026,302.963 983.029,286.46 1042.445,286.46 	"/>
	
		<path clip-path="url(#SVGID_2_)" fill="none" stroke="#FFFFFF" stroke-linecap="round" stroke-linejoin="round" stroke-miterlimit="10" d="
		M1066.338,258.139c0-6.597-5.349-11.946-11.945-11.946c-6.599,0-11.947,5.349-11.947,11.946v44.825h23.893V258.139z"/>
	
		<circle clip-path="url(#SVGID_2_)" fill="none" stroke="#FFFFFF" stroke-linecap="round" stroke-linejoin="round" stroke-miterlimit="10" cx="1054.392" cy="258.79" r="3.635"/>
	
		<path clip-path="url(#SVGID_2_)" fill="none" stroke="#FFFFFF" stroke-linecap="round" stroke-linejoin="round" stroke-miterlimit="10" d="
		M1078.318,187.418c6.374,6.221,10.331,14.907,10.331,24.517c0,18.92-15.338,34.257-34.258,34.257"/>
	
		<path clip-path="url(#SVGID_2_)" fill="none" stroke="#FFFFFF" stroke-linecap="round" stroke-linejoin="round" stroke-miterlimit="10" d="
		M1082.177,179.873c11.688,8.563,19.278,22.39,19.278,37.989c0,21.865-14.91,40.247-35.117,45.534"/>
	
		<polyline clip-path="url(#SVGID_2_)" fill="none" stroke="#FFFFFF" stroke-linecap="round" stroke-linejoin="round" stroke-miterlimit="10" points="
		1040.323,258.139 996.084,258.139 996.084,246.192 1054.392,246.192 	"/>
	
		<polyline clip-path="url(#SVGID_2_)" fill="none" stroke="#FFFFFF" stroke-linecap="round" stroke-linejoin="round" stroke-miterlimit="10" points="
		1064.96,182.598 1051.106,209.65 1025.272,196.421 1058.228,132.066 1084.062,145.295 1072.535,167.804 	"/>
	
		<polyline clip-path="url(#SVGID_2_)" fill="none" stroke="#FFFFFF" stroke-linecap="round" stroke-linejoin="round" stroke-miterlimit="10" points="
		1064.96,182.597 1061.201,189.937 1073.744,196.36 1089.314,165.956 1076.771,159.534 1072.535,167.803 	"/>
	
		<polygon clip-path="url(#SVGID_2_)" fill="none" stroke="#FFFFFF" stroke-linecap="round" stroke-linejoin="round" stroke-miterlimit="10" points="
		1051.106,209.651 1025.272,196.422 1026.162,207.858 1041.309,215.614 	"/>
	
		<rect x="1023.569" y="211.336" transform="matrix(0.8901 0.4558 -0.4558 0.8901 211.4284 -446.7927)" clip-path="url(#SVGID_2_)" fill="none" stroke="#FFFFFF" stroke-linecap="round" stroke-linejoin="round" stroke-miterlimit="10" width="17.017" height="7.271"/>
	
		<rect x="1062.305" y="131.809" transform="matrix(0.8901 0.4558 -0.4558 0.8901 179.6364 -474.0665)" clip-path="url(#SVGID_2_)" fill="none" stroke="#FFFFFF" stroke-linecap="round" stroke-linejoin="round" stroke-miterlimit="10" width="20.991" height="7.272"/>
	
		<polygon clip-path="url(#SVGID_2_)" fill="none" stroke="#FFFFFF" stroke-linecap="round" stroke-linejoin="round" stroke-miterlimit="10" points="
		1078.456,134.256 1070.459,130.162 1071.103,122.321 1084.441,129.152 	"/>
	
		<rect x="1024.348" y="217.717" transform="matrix(0.8901 0.4558 -0.4558 0.8901 214.3412 -444.3607)" clip-path="url(#SVGID_2_)" fill="none" stroke="#FFFFFF" stroke-linecap="round" stroke-linejoin="round" stroke-miterlimit="10" width="8.08" height="8.92"/>
	
		<circle clip-path="url(#SVGID_2_)" fill="none" stroke="#FFFFFF" stroke-linecap="round" stroke-linejoin="round" stroke-miterlimit="10" cx="1068.748" cy="175.2" r="8.311"/>
	
		<circle clip-path="url(#SVGID_2_)" fill="none" stroke="#00BDF1" stroke-width="5" stroke-linecap="round" stroke-linejoin="round" stroke-miterlimit="10" cx="886.232" cy="217.49" r="85.886"/>
	
		<path clip-path="url(#SVGID_2_)" fill="none" stroke="#FFFFFF" stroke-linecap="round" stroke-linejoin="round" stroke-miterlimit="10" d="
		M886.823,292.223c-2.447,0.226-3.618-3.381-2.319-5.466c1.298-2.086,3.804-2.993,6.007-4.081c2.203-1.088,4.489-2.89,4.495-5.346
		c0.005-1.794-1.233-3.357-1.555-5.122c-0.322-1.764,1.324-4.078,2.867-3.163"/>
	
		<path clip-path="url(#SVGID_2_)" fill="none" stroke="#FFFFFF" stroke-linecap="round" stroke-linejoin="round" stroke-miterlimit="10" d="
		M824.515,239.025c9.682,1.037,18.833,6.319,24.572,14.185"/>
	
		<path clip-path="url(#SVGID_2_)" fill="none" stroke="#FFFFFF" stroke-linecap="round" stroke-linejoin="round" stroke-miterlimit="10" d="
		M852.316,228.138c-1.163-1.497,0.083-3.677,1.541-4.89c1.456-1.214,3.302-2.36,3.57-4.237c0.312-2.184-1.733-3.974-3.734-4.902
		c-2-0.929-4.31-1.575-5.592-3.368c-2.349-3.286,0.241-7.738,2.759-10.897"/>
	
		<path clip-path="url(#SVGID_2_)" fill="none" stroke="#FFFFFF" stroke-linecap="round" stroke-linejoin="round" stroke-miterlimit="10" d="
		M872.093,171.356c-1.81,0.588-1.653,3.425-0.254,4.716c1.398,1.291,3.399,1.638,5.105,2.48c5.107,2.52,6.66,10.21,2.931,14.514"/>
	
		<path clip-path="url(#SVGID_2_)" fill="none" stroke="#FFFFFF" stroke-linecap="round" stroke-linejoin="round" stroke-miterlimit="10" d="
		M882.735,236.342c-0.899-3.639,2.73-6.984,6.393-7.78c3.662-0.796,7.489-0.011,11.213-0.433c3.724-0.423,7.794-2.779,8.02-6.52"/>
	
		<path clip-path="url(#SVGID_2_)" fill="none" stroke="#FFFFFF" stroke-linecap="round" stroke-linejoin="round" stroke-miterlimit="10" d="
		M930.531,168.015c-3.142-2.239-7.733-0.974-10.551,1.662c-2.817,2.636-4.369,6.307-6.183,9.712
		c-1.814,3.405-4.188,6.831-7.787,8.22"/>
	
		<path clip-path="url(#SVGID_2_)" fill="none" stroke="#FFFFFF" stroke-linecap="round" stroke-linejoin="round" stroke-miterlimit="10" d="
		M922.6,243.479c4.38,6.065,12.985,8.671,19.994,6.055"/>
	
		<path clip-path="url(#SVGID_2_)" fill="none" stroke="#FFFFFF" stroke-linecap="round" stroke-linejoin="round" stroke-miterlimit="10" d="
		M924.189,205.152c5.079-1.24,9.904-3.511,14.097-6.634"/>
	
		<path clip-path="url(#SVGID_2_)" fill="none" stroke="#FFFFFF" stroke-linecap="round" stroke-linejoin="round" stroke-miterlimit="10" d="
		M825.379,189.128c4.606-2.218,10.07-2.59,14.935-1.017"/>
	
		<path clip-path="url(#SVGID_2_)" fill="none" stroke="#FFFFFF" stroke-linecap="round" stroke-linejoin="round" stroke-miterlimit="10" d="
		M887.654,149.75c5.455,1.674,9.325,7.473,8.778,13.152"/>
	
		<path clip-path="url(#SVGID_2_)" fill="none" stroke="#FFFFFF" stroke-linecap="round" stroke-linejoin="round" stroke-miterlimit="10" d="
		M862.386,280.371c-2.317-1.979-1.455-5.908,0.598-8.161c2.053-2.252,4.948-3.575,7.105-5.728c2.156-2.153,3.39-5.886,1.375-8.172"
		/>
	
		<circle clip-path="url(#SVGID_2_)" fill="none" stroke="#FFFFFF" stroke-linecap="round" stroke-linejoin="round" stroke-miterlimit="10" cx="893.892" cy="205.583" r="3.749"/>
	
		<circle clip-path="url(#SVGID_2_)" fill="none" stroke="#FFFFFF" stroke-linecap="round" stroke-linejoin="round" stroke-miterlimit="10" cx="825.475" cy="221.137" r="3.647"/>
	
		<circle clip-path="url(#SVGID_2_)" fill="none" stroke="#FFFFFF" stroke-linecap="round" stroke-linejoin="round" stroke-miterlimit="10" cx="841.99" cy="167.14" r="4.238"/>
	
		<circle clip-path="url(#SVGID_2_)" fill="none" stroke="#FFFFFF" stroke-linecap="round" stroke-linejoin="round" stroke-miterlimit="10" cx="860.018" cy="188.174" r="2.559"/>
	
		<circle clip-path="url(#SVGID_2_)" fill="none" stroke="#FFFFFF" stroke-linecap="round" stroke-linejoin="round" stroke-miterlimit="10" cx="843.747" cy="272.773" r="3.433"/>
	
		<circle clip-path="url(#SVGID_2_)" fill="none" stroke="#FFFFFF" stroke-linecap="round" stroke-linejoin="round" stroke-miterlimit="10" cx="889.867" cy="248.332" r="2.214"/>
	
		<circle clip-path="url(#SVGID_2_)" fill="none" stroke="#FFFFFF" stroke-linecap="round" stroke-linejoin="round" stroke-miterlimit="10" cx="863.529" cy="236.342" r="2.214"/>
	
		<circle clip-path="url(#SVGID_2_)" fill="none" stroke="#FFFFFF" stroke-linecap="round" stroke-linejoin="round" stroke-miterlimit="10" cx="912.002" cy="276.414" r="3.641"/>
	
		<circle clip-path="url(#SVGID_2_)" fill="none" stroke="#FFFFFF" stroke-linecap="round" stroke-linejoin="round" stroke-miterlimit="10" cx="923.033" cy="227.979" r="2.489"/>
	
		<circle clip-path="url(#SVGID_2_)" fill="none" stroke="#FFFFFF" stroke-linecap="round" stroke-linejoin="round" stroke-miterlimit="10" cx="953.448" cy="210.505" r="2.754"/>
	
		<circle clip-path="url(#SVGID_2_)" fill="none" stroke="#FFFFFF" stroke-linecap="round" stroke-linejoin="round" stroke-miterlimit="10" cx="925.093" cy="185.681" r="2.493"/>
	
		<circle clip-path="url(#SVGID_2_)" fill="none" stroke="#FFFFFF" stroke-linecap="round" stroke-linejoin="round" stroke-miterlimit="10" cx="912.002" cy="150.507" r="3.641"/>
	
		<path clip-path="url(#SVGID_2_)" fill="none" stroke="#FFFFFF" stroke-linecap="round" stroke-linejoin="round" stroke-miterlimit="10" d="
		M853.531,150.693c2.448-0.421,5.171-0.789,7.24,0.585c1.54,1.024,2.368,2.799,3.53,4.238c2.188,2.708,5.756,4.238,9.226,3.954"/>
	
		<path clip-path="url(#SVGID_2_)" fill="none" stroke="#FFFFFF" stroke-linecap="round" stroke-linejoin="round" stroke-miterlimit="10" d="
		M960.013,223.275c-5.692,0.682-10.813,4.877-12.603,10.323"/>
	
		<path clip-path="url(#SVGID_2_)" fill="none" stroke="#FFFFFF" stroke-linecap="round" stroke-linejoin="round" stroke-miterlimit="10" d="
		M918.62,266.731c2.151-1.459,5.229-0.949,7.24,0.699c2.01,1.648,3.093,4.194,3.601,6.743"/>
	
		<rect x="1484.739" y="132.268" clip-path="url(#SVGID_2_)" fill="none" stroke="#FFFFFF" stroke-linecap="round" stroke-linejoin="round" stroke-miterlimit="10" width="113.469" height="150.942"/>
	<rect x="1493.84" y="141.369" clip-path="url(#SVGID_2_)" fill="#FFFFFF" width="95.266" height="132.74"/>
	<polygon clip-path="url(#SVGID_2_)" fill="#04C3F4" points="1561.562,148.119 1521.383,148.119 1512.277,129.536 1570.669,129.536 
			"/>
	<path clip-path="url(#SVGID_2_)" fill="#04C3F4" d="M1533.388,132.268v-8.085c0-4.465,3.62-8.085,8.085-8.085
		s8.085,3.62,8.085,8.085v8.085H1533.388z"/>
	<path clip-path="url(#SVGID_2_)" fill="#00468B" d="M1545.8,124.183c0,2.412-1.956,4.368-4.368,4.368
		c-2.411,0-4.367-1.956-4.367-4.368c0-2.413,1.956-4.368,4.367-4.368C1543.844,119.815,1545.8,121.77,1545.8,124.183"/>
	
		<rect x="1508.728" y="169.833" clip-path="url(#SVGID_2_)" fill="none" stroke="#00468B" stroke-linecap="round" stroke-linejoin="round" stroke-miterlimit="10" width="25.493" height="25.493"/>
	
		<line clip-path="url(#SVGID_2_)" fill="none" stroke="#00468B" stroke-linecap="round" stroke-linejoin="round" stroke-miterlimit="10" x1="1542.032" y1="169.833" x2="1560.62" y2="169.833"/>
	
		<line clip-path="url(#SVGID_2_)" fill="none" stroke="#00468B" stroke-linecap="round" stroke-linejoin="round" stroke-miterlimit="10" x1="1542.032" y1="195.544" x2="1560.62" y2="195.544"/>
	
		<line clip-path="url(#SVGID_2_)" fill="none" stroke="#00468B" stroke-linecap="round" stroke-linejoin="round" stroke-miterlimit="10" x1="1542.032" y1="178.068" x2="1570.274" y2="178.068"/>
	
		<line clip-path="url(#SVGID_2_)" fill="none" stroke="#00468B" stroke-linecap="round" stroke-linejoin="round" stroke-miterlimit="10" x1="1542.032" y1="185.961" x2="1572.483" y2="185.961"/>
	
		<line clip-path="url(#SVGID_2_)" fill="none" stroke="#00468B" stroke-linecap="round" stroke-linejoin="round" stroke-miterlimit="10" x1="1508.728" y1="210.147" x2="1563.661" y2="210.147"/>
	
		<line clip-path="url(#SVGID_2_)" fill="none" stroke="#00468B" stroke-linecap="round" stroke-linejoin="round" stroke-miterlimit="10" x1="1508.728" y1="219.896" x2="1570.036" y2="219.896"/>
	
		<line clip-path="url(#SVGID_2_)" fill="none" stroke="#00468B" stroke-linecap="round" stroke-linejoin="round" stroke-miterlimit="10" x1="1508.728" y1="229.644" x2="1569.124" y2="229.644"/>
	
		<line clip-path="url(#SVGID_2_)" fill="none" stroke="#00468B" stroke-linecap="round" stroke-linejoin="round" stroke-miterlimit="10" x1="1508.728" y1="239.392" x2="1557.156" y2="239.392"/>
	
		<line clip-path="url(#SVGID_2_)" fill="none" stroke="#00468B" stroke-linecap="round" stroke-linejoin="round" stroke-miterlimit="10" x1="1508.728" y1="249.14" x2="1564.812" y2="249.14"/>
	<path clip-path="url(#SVGID_2_)" fill="#00BDF1" d="M1372.878,250.278c0,6.148-4.983,27.611-11.133,27.611
		c-6.147,0-11.133-21.463-11.133-27.611l0.032-28.792h22.265L1372.878,250.278z"/>
	
		<path clip-path="url(#SVGID_2_)" fill="none" stroke="#FFFFFF" stroke-linecap="round" stroke-linejoin="round" stroke-miterlimit="10" d="
		M1372.878,250.278c0,6.148-4.983,27.611-11.133,27.611c-6.147,0-11.133-21.463-11.133-27.611v-69.679h22.266V250.278z"/>
	
		<path clip-path="url(#SVGID_2_)" fill="none" stroke="#FFFFFF" stroke-linecap="round" stroke-linejoin="round" stroke-miterlimit="10" d="
		M1349.312,180.6c-0.965,0-1.746-0.782-1.746-1.747c0-0.964,0.781-1.747,1.746-1.747h24.867c0.965,0,1.747,0.783,1.747,1.747
		c0,0.965-0.782,1.747-1.747,1.747H1349.312z"/>
	
		<line clip-path="url(#SVGID_2_)" fill="none" stroke="#FFFFFF" stroke-linecap="round" stroke-linejoin="round" stroke-miterlimit="10" x1="1350.612" y1="209.185" x2="1356.513" y2="209.185"/>
	
		<line clip-path="url(#SVGID_2_)" fill="none" stroke="#FFFFFF" stroke-linecap="round" stroke-linejoin="round" stroke-miterlimit="10" x1="1350.612" y1="216.283" x2="1354.137" y2="216.283"/>
	
		<line clip-path="url(#SVGID_2_)" fill="none" stroke="#FFFFFF" stroke-linecap="round" stroke-linejoin="round" stroke-miterlimit="10" x1="1350.612" y1="223.381" x2="1356.513" y2="223.381"/>
	
		<line clip-path="url(#SVGID_2_)" fill="none" stroke="#FFFFFF" stroke-linecap="round" stroke-linejoin="round" stroke-miterlimit="10" x1="1350.612" y1="230.479" x2="1354.137" y2="230.479"/>
	
		<line clip-path="url(#SVGID_2_)" fill="none" stroke="#FFFFFF" stroke-linecap="round" stroke-linejoin="round" stroke-miterlimit="10" x1="1350.612" y1="237.577" x2="1356.513" y2="237.577"/>
	
		<line clip-path="url(#SVGID_2_)" fill="none" stroke="#FFFFFF" stroke-linecap="round" stroke-linejoin="round" stroke-miterlimit="10" x1="1350.612" y1="244.675" x2="1354.137" y2="244.675"/>
	<rect x="1320.773" y="297.5" clip-path="url(#SVGID_2_)" fill="#FFFFFF" width="175.989" height="5.214"/>
	<rect x="1332.932" y="221.487" clip-path="url(#SVGID_2_)" fill="#FFFFFF" width="4.148" height="78.62"/>
	<rect x="1480.456" y="221.487" clip-path="url(#SVGID_2_)" fill="#FFFFFF" width="4.147" height="78.62"/>
	<path clip-path="url(#SVGID_2_)" fill="#00BDF1" d="M1419.9,252.021c0,6.261-4.983,28.117-11.133,28.117
		c-6.147,0-11.133-21.856-11.133-28.117l0.032-49.731h22.265L1419.9,252.021z"/>
	
		<path clip-path="url(#SVGID_2_)" fill="none" stroke="#FFFFFF" stroke-linecap="round" stroke-linejoin="round" stroke-miterlimit="10" d="
		M1419.9,252.021c0,6.261-4.983,28.117-11.133,28.117c-6.147,0-11.133-21.856-11.133-28.117v-71.357h22.266V252.021z"/>
	
		<line clip-path="url(#SVGID_2_)" fill="none" stroke="#FFFFFF" stroke-linecap="round" stroke-linejoin="round" stroke-miterlimit="10" x1="1397.635" y1="210.175" x2="1403.535" y2="210.175"/>
	
		<line clip-path="url(#SVGID_2_)" fill="none" stroke="#FFFFFF" stroke-linecap="round" stroke-linejoin="round" stroke-miterlimit="10" x1="1397.635" y1="217.403" x2="1401.158" y2="217.403"/>
	
		<line clip-path="url(#SVGID_2_)" fill="none" stroke="#FFFFFF" stroke-linecap="round" stroke-linejoin="round" stroke-miterlimit="10" x1="1397.635" y1="224.631" x2="1403.535" y2="224.631"/>
	
		<line clip-path="url(#SVGID_2_)" fill="none" stroke="#FFFFFF" stroke-linecap="round" stroke-linejoin="round" stroke-miterlimit="10" x1="1397.635" y1="231.859" x2="1401.158" y2="231.859"/>
	
		<line clip-path="url(#SVGID_2_)" fill="none" stroke="#FFFFFF" stroke-linecap="round" stroke-linejoin="round" stroke-miterlimit="10" x1="1397.635" y1="239.087" x2="1403.535" y2="239.087"/>
	
		<line clip-path="url(#SVGID_2_)" fill="none" stroke="#FFFFFF" stroke-linecap="round" stroke-linejoin="round" stroke-miterlimit="10" x1="1397.635" y1="246.315" x2="1401.158" y2="246.315"/>
	<path clip-path="url(#SVGID_2_)" fill="#00BDF1" d="M1466.923,250.278c0,6.148-4.983,27.611-11.133,27.611
		c-6.147,0-11.133-21.463-11.133-27.611l0.032-12.701h22.265L1466.923,250.278z"/>
	
		<path clip-path="url(#SVGID_2_)" fill="none" stroke="#FFFFFF" stroke-linecap="round" stroke-linejoin="round" stroke-miterlimit="10" d="
		M1466.923,250.278c0,6.148-4.983,27.611-11.133,27.611c-6.147,0-11.133-21.463-11.133-27.611v-69.679h22.266V250.278z"/>
	
		<line clip-path="url(#SVGID_2_)" fill="none" stroke="#FFFFFF" stroke-linecap="round" stroke-linejoin="round" stroke-miterlimit="10" x1="1444.657" y1="209.185" x2="1450.558" y2="209.185"/>
	
		<line clip-path="url(#SVGID_2_)" fill="none" stroke="#FFFFFF" stroke-linecap="round" stroke-linejoin="round" stroke-miterlimit="10" x1="1444.657" y1="216.283" x2="1448.181" y2="216.283"/>
	
		<line clip-path="url(#SVGID_2_)" fill="none" stroke="#FFFFFF" stroke-linecap="round" stroke-linejoin="round" stroke-miterlimit="10" x1="1444.657" y1="223.381" x2="1450.558" y2="223.381"/>
	
		<line clip-path="url(#SVGID_2_)" fill="none" stroke="#FFFFFF" stroke-linecap="round" stroke-linejoin="round" stroke-miterlimit="10" x1="1444.657" y1="230.479" x2="1448.181" y2="230.479"/>
	
		<line clip-path="url(#SVGID_2_)" fill="none" stroke="#FFFFFF" stroke-linecap="round" stroke-linejoin="round" stroke-miterlimit="10" x1="1444.657" y1="237.577" x2="1450.558" y2="237.577"/>
	
		<line clip-path="url(#SVGID_2_)" fill="none" stroke="#FFFFFF" stroke-linecap="round" stroke-linejoin="round" stroke-miterlimit="10" x1="1444.657" y1="244.675" x2="1448.181" y2="244.675"/>
	<rect x="1317.804" y="216.272" clip-path="url(#SVGID_2_)" fill="#00468B" width="181.929" height="5.215"/>
	
		<rect x="1317.804" y="216.272" clip-path="url(#SVGID_2_)" fill="none" stroke="#FFFFFF" stroke-linecap="round" stroke-linejoin="round" stroke-miterlimit="10" width="181.929" height="5.215"/>
	
		<path clip-path="url(#SVGID_2_)" fill="none" stroke="#FFFFFF" stroke-linecap="round" stroke-linejoin="round" stroke-miterlimit="10" d="
		M1396.35,180.6c-0.965,0-1.747-0.782-1.747-1.747c0-0.964,0.782-1.747,1.747-1.747h24.867c0.965,0,1.747,0.783,1.747,1.747
		c0,0.965-0.782,1.747-1.747,1.747H1396.35z"/>
	
		<path clip-path="url(#SVGID_2_)" fill="none" stroke="#FFFFFF" stroke-linecap="round" stroke-linejoin="round" stroke-miterlimit="10" d="
		M1443.356,180.6c-0.965,0-1.747-0.782-1.747-1.747c0-0.964,0.782-1.747,1.747-1.747h24.867c0.965,0,1.746,0.783,1.746,1.747
		c0,0.965-0.781,1.747-1.746,1.747H1443.356z"/>
</g>
</svg>
