<?xml version="1.0" standalone="no"?>
<!DOCTYPE svg PUBLIC "-//W3C//DTD SVG 1.1//EN" "http://www.w3.org/Graphics/SVG/1.1/DTD/svg11.dtd" >
<svg xmlns="http://www.w3.org/2000/svg" xmlns:xlink="http://www.w3.org/1999/xlink" version="1.1">
<metadata></metadata>
<defs>
<font id="helveticaneuecyrblack_italic" horiz-adv-x="1327" >
<font-face units-per-em="2048" ascent="1638" descent="-410" />
<missing-glyph horiz-adv-x="684" />
<glyph horiz-adv-x="0" />
<glyph unicode="&#xd;" horiz-adv-x="681" />
<glyph unicode=" "  horiz-adv-x="684" />
<glyph unicode="&#x09;" horiz-adv-x="684" />
<glyph unicode="&#xa0;" horiz-adv-x="684" />
<glyph unicode="!" horiz-adv-x="684" d="M-14 0l86 403h405l-84 -403h-407zM203 514l14 608l72 336h418l-68 -328l-244 -616h-192z" />
<glyph unicode="&#x22;" horiz-adv-x="1062" d="M217 811l100 606h297l-206 -606h-191zM592 811l141 606h297l-246 -606h-192z" />
<glyph unicode="#" horiz-adv-x="1368" d="M45 336v278h213l37 195h-156v278h209l64 332h336l-64 -332h137l64 332h338l-64 -332h164v-278h-217l-37 -195h162v-278h-215l-64 -336h-340l64 336h-135l-64 -336h-340l66 336h-158zM596 614h135l35 195h-135z" />
<glyph unicode="$" horiz-adv-x="1368" d="M-29 418q0 29 2 53h412v-22q0 -137 139 -170l66 305q-82 23 -133 39t-118 50t-104.5 71.5t-64.5 100t-27 140.5q0 121 53.5 212t141.5 142.5t191.5 76t215.5 24.5h25l37 172h104l-37 -174q215 -18 327 -120t112 -280q0 -8 -1 -21t-1 -26h-375v25q0 117 -123 135l-55 -256 q100 -20 174 -45t150.5 -70t118.5 -117.5t42 -170.5q0 -162 -89 -282t-226 -177.5t-297 -57.5q-35 0 -66 2l-41 -184h-104l41 184q-211 10 -350.5 122t-139.5 319zM537 1038q0 -23 5 -39t22.5 -29.5t23.5 -17.5t36.5 -15t32.5 -13l54 237h-17q-74 0 -115.5 -32.5 t-41.5 -90.5zM627 270q10 -2 22 -2q80 0 130 42t50 110q0 41 -23.5 68.5t-46 38t-71.5 24.5z" />
<glyph unicode="%" horiz-adv-x="2048" d="M139 983q0 190 111.5 320.5t300.5 130.5q156 0 247 -79t91 -233q0 -190 -116 -326.5t-302 -136.5q-154 0 -243 87.5t-89 236.5zM395 -41l989 1491h236l-989 -1491h-236zM399 934q0 -45 20.5 -70.5t55.5 -25.5t59.5 24.5t32.5 47t21 61.5q37 141 37 200q0 82 -80 82 q-61 0 -86 -59q-18 -39 -39 -128t-21 -132zM1145 293q0 190 111.5 320t299.5 130q156 0 247 -78.5t91 -232.5q0 -190 -115.5 -326.5t-301.5 -136.5q-154 0 -243 87t-89 237zM1405 244q0 -45 20.5 -71t55.5 -26t59.5 25t32.5 47.5t20 61.5q37 141 37 200q0 82 -80 82 q-61 0 -86 -59q-18 -39 -38.5 -128t-20.5 -132z" />
<glyph unicode="&#x26;" horiz-adv-x="1517" d="M23 414q0 309 385 448q-76 127 -76 234q0 166 126 274.5t318.5 108.5t310 -99.5t117.5 -259.5q0 -252 -311 -393l94 -143q39 43 78 127h350q-49 -213 -246 -410l193 -301h-436l-45 76q-141 -111 -353 -111q-215 0 -360 119t-145 330zM406 418q0 -51 37.5 -87t91.5 -36 q90 0 172 76l-129 221q-94 -41 -133 -80t-39 -94zM678 1110q0 -49 63 -147q150 80 150 165q0 39 -28.5 66t-74.5 27q-47 0 -78.5 -32t-31.5 -79z" />
<glyph unicode="'" horiz-adv-x="606" d="M180 811l135 606h295l-250 -606h-180z" />
<glyph unicode="(" horiz-adv-x="645" d="M18 233q0 348 97.5 634t324.5 603h371q-199 -309 -303.5 -620t-104.5 -690q0 -283 50 -506h-342q-92 254 -93 579z" />
<glyph unicode=")" horiz-adv-x="645" d="M-231 -346q408 596 407 1321q0 252 -49 495h344q90 -254 90 -577q0 -346 -97 -629.5t-325 -609.5h-370z" />
<glyph unicode="*" horiz-adv-x="948" d="M113 1110l92 199l246 -127l26 276h223l-45 -299l267 64l49 -219l-271 -48l131 -227l-192 -111l-129 238l-195 -221l-161 156l211 206z" />
<glyph unicode="+" horiz-adv-x="1228" d="M51 375v321h363v369h336v-369h362v-321h-362v-375h-336v375h-363z" />
<glyph unicode="," horiz-adv-x="684" d="M-94 -379l39 193q104 8 150 49t63 137h-174l88 406h413l-73 -347q-45 -213 -156 -325.5t-324 -112.5h-26z" />
<glyph unicode="-" horiz-adv-x="833" d="M27 377l71 338h639l-71 -338h-639z" />
<glyph unicode="." horiz-adv-x="684" d="M-23 0l86 406h420l-84 -406h-422z" />
<glyph unicode="/" horiz-adv-x="872" d="M-143 -35l784 1532h375l-783 -1532h-376z" />
<glyph unicode="0" horiz-adv-x="1368" d="M61 514q0 133 27 261t84 247t140 209t203 144.5t261 54.5q246 0 388.5 -137.5t142.5 -385.5q0 -131 -27 -261t-85 -250t-140 -211t-203 -146t-262 -55q-242 0 -385.5 143t-143.5 387zM440 506q0 -213 187 -213q111 0 170 96q57 92 96 252t39 281q0 200 -180 200 q-117 0 -187 -110q-53 -84 -89 -239t-36 -267z" />
<glyph unicode="1" horiz-adv-x="1368" d="M268 854l66 297h10q190 0 287.5 54.5t177.5 211.5h338l-301 -1417h-426l182 854h-334z" />
<glyph unicode="2" horiz-adv-x="1368" d="M-57 0q8 84 33.5 156.5t53 125t85 106.5t95.5 86t119 77t122 65.5t135 65.5q209 102 254 137q70 55 69 137q0 66 -46 104t-124 38q-186 0 -219 -226h-383q29 270 194 414t441 144q254 0 401.5 -117t147.5 -316q0 -115 -51 -210t-150.5 -166.5t-179.5 -113.5t-205 -95 q-150 -61 -215 -101q76 12 277 17l430 6l-78 -334h-1206z" />
<glyph unicode="3" horiz-adv-x="1368" d="M25 438q0 51 6 94h381q0 -8 -1 -16t-2 -13t-1 -11q0 -90 52 -138.5t146 -48.5q90 0 148.5 49t58.5 125q0 72 -48 102.5t-157 30.5h-57l51 260h117q201 0 201 134q0 55 -45.5 87.5t-122.5 32.5q-184 0 -217 -180h-375q35 248 200.5 368t427.5 120q240 0 376 -96.5 t136 -266.5q0 -129 -75.5 -211t-198.5 -108q201 -57 201 -275q0 -164 -97.5 -280.5t-236.5 -168t-299 -51.5q-115 0 -214 27t-180 80t-128 144t-47 210z" />
<glyph unicode="4" horiz-adv-x="1368" d="M-18 305l79 357l809 755h408l-164 -790h184l-65 -322h-189l-65 -305h-404l64 305h-657zM377 623q51 4 119 4h223l37 168q27 127 61 260q-72 -88 -160 -172l-153 -150q-72 -72 -127 -110z" />
<glyph unicode="5" horiz-adv-x="1368" d="M18 412q0 20 2 37h390q25 -152 204 -152q100 0 167 61.5t67 153.5q0 82 -56.5 133t-144.5 51q-121 0 -192 -92h-365l268 813h961l-70 -342h-635l-65 -190q104 82 262 82q199 0 316.5 -112t117.5 -298q0 -266 -191.5 -423t-465.5 -157q-106 0 -202.5 24t-181.5 72 t-135.5 136t-50.5 203z" />
<glyph unicode="6" horiz-adv-x="1368" d="M82 575q0 227 83 420t256 316t404.5 123t369.5 -106t140 -286h-385q-16 106 -157 107q-201 0 -295 -326q129 135 317 135q195 0 311.5 -111.5t116.5 -297.5q0 -254 -174 -410.5t-430 -156.5q-266 0 -411.5 154.5t-145.5 438.5zM463 481q0 -84 54 -137t138 -53 q90 0 149.5 64.5t59.5 162.5q0 76 -48 126t-124 50h-12q-94 0 -155.5 -60.5t-61.5 -152.5z" />
<glyph unicode="7" horiz-adv-x="1368" d="M180 0q39 258 241 584.5t423 480.5q-37 0 -113 -3t-115 -3h-428l76 358h1090l-68 -327q-244 -207 -420 -486.5t-235 -603.5h-451z" />
<glyph unicode="8" horiz-adv-x="1368" d="M8 389q0 145 100.5 246.5t262.5 118.5q-182 78 -183 264q0 115 53.5 198.5t142.5 130t186.5 67t203.5 20.5q100 0 186.5 -15.5t171.5 -52.5t134 -111.5t49 -181.5q0 -135 -78 -219t-209 -109q238 -66 238 -299q0 -160 -99.5 -269t-240 -153t-303.5 -44q-88 0 -167 10 t-164 37.5t-145.5 71.5t-99.5 119t-39 171zM401 428q0 -78 59.5 -120t168.5 -42q102 0 172.5 46t70.5 147q0 76 -58.5 116.5t-164.5 40.5q-117 0 -182.5 -50t-65.5 -138zM537 999q0 -68 53 -105.5t147 -37.5q104 0 162.5 43t58.5 121q1 143 -196 143q-94 0 -159.5 -38 t-65.5 -126z" />
<glyph unicode="9" horiz-adv-x="1368" d="M23 373h372q16 -115 166 -115q68 0 115 19.5t78.5 68.5t46 85t37.5 112l8 26q-119 -119 -307 -118q-199 0 -312.5 113.5t-113.5 307.5q0 246 175 404t447 158q268 0 405.5 -154t137.5 -418q0 -176 -46 -332.5t-134 -280.5t-234.5 -196.5t-333.5 -72.5q-135 0 -244.5 36.5 t-185 128t-77.5 228.5zM489 901q0 -82 52.5 -133t134.5 -51q96 0 159.5 62.5t63.5 156.5q0 80 -49 133t-127 53q-98 0 -166 -61.5t-68 -159.5z" />
<glyph unicode=":" horiz-adv-x="684" d="M-16 0l86 406h415l-84 -406h-417zM117 625l84 405h417l-86 -405h-415z" />
<glyph unicode=";" horiz-adv-x="684" d="M-96 -381l39 193q100 10 147 51t66 137h-176l88 406h415l-73 -347q-45 -213 -158 -326.5t-326 -113.5h-22zM113 627l86 403h415l-86 -403h-415z" />
<glyph unicode="&#x3c;" horiz-adv-x="1228" d="M-45 387v297l1184 442v-346l-746 -245l746 -246v-346z" />
<glyph unicode="=" horiz-adv-x="1228" d="M18 168v311h1145v-311h-1145zM18 616v314h1145v-314h-1145z" />
<glyph unicode="&#x3e;" horiz-adv-x="1228" d="M23 -57v346l747 246l-747 245v346l1183 -442v-297z" />
<glyph unicode="?" horiz-adv-x="1175" d="M90 989q23 229 184.5 365.5t411.5 136.5q244 0 383 -102.5t139 -282.5q0 -244 -250 -356q-162 -72 -194 -99q-58 -49 -70 -139h-372q18 150 73.5 238t182.5 143q10 4 49 19.5t56 25.5t44 28.5t38 42t11 54.5q0 45 -31.5 70.5t-87.5 25.5q-23 0 -40 -4t-30.5 -8 t-24.5 -18.5t-17 -20.5t-14.5 -26.5t-10.5 -26.5t-9 -33t-9 -33h-412zM195 0l84 399h407l-82 -399h-409z" />
<glyph unicode="@" horiz-adv-x="1638" d="M55 713q0 332 240 557t590 225q309 0 508.5 -174t199.5 -447q0 -213 -133 -382.5t-307 -169.5q-74 0 -128.5 38t-70.5 99q-98 -135 -254 -135q-135 0 -216 93t-81 242q0 201 128 352.5t300 151.5q141 0 205 -96l19 61h250l-129 -436q-25 -88 -25 -123q0 -53 53 -53 q74 0 140.5 113.5t66.5 257.5q0 203 -143.5 326.5t-380.5 123.5q-283 0 -466 -179t-183 -451q0 -258 175 -422t453 -164q150 0 275 49t270 154l92 -125q-315 -236 -645 -236q-346 0 -574.5 213t-228.5 537zM690 637q0 -121 78 -121q80 0 136.5 141.5t56.5 235.5q0 78 -74 78 q-82 0 -139.5 -116t-57.5 -218z" />
<glyph unicode="A" horiz-adv-x="1478" d="M-166 0l848 1458h440l230 -1458h-443l-24 207h-477l-113 -207h-461zM571 522h281l-29 260q-12 98 -14 213q-55 -133 -154 -317z" />
<glyph unicode="B" horiz-adv-x="1517" d="M-33 0l312 1458h675q84 0 146.5 -5t133.5 -25.5t117 -56.5t76.5 -99.5t30.5 -151.5q0 -127 -73.5 -219t-192.5 -113q203 -72 203 -299q0 -211 -154 -352q-68 -61 -161 -94t-162.5 -38t-188.5 -5h-762zM475 346h250q127 0 172 31q61 43 61 121q0 43 -18 69.5t-56 36.5 t-63.5 12t-75.5 2h-16h-197zM592 901h233q84 0 135.5 25.5t51.5 103.5q0 35 -15.5 56.5t-48.5 28.5t-52 9t-58 2h-197z" />
<glyph unicode="C" horiz-adv-x="1554" d="M86 618q0 381 213 627t580 246q283 0 450.5 -146.5t167.5 -392.5q0 -20 -2 -37h-428q-6 219 -203 220q-88 0 -155.5 -50.5t-104.5 -130.5t-55.5 -163.5t-18.5 -165.5q0 -147 60.5 -227.5t171.5 -80.5q197 0 252 236h442q-55 -287 -246.5 -437.5t-480.5 -150.5 q-307 0 -475 171t-168 482z" />
<glyph unicode="D" horiz-adv-x="1593" d="M-25 0l310 1458h557q203 0 325 -37q166 -49 263.5 -202.5t97.5 -366.5q0 -352 -205 -590q-137 -158 -297 -210t-399 -52h-652zM494 369h141q111 0 171 14t109 51q72 55 117 160.5t45 220.5q0 160 -79.5 219.5t-245.5 59.5h-105z" />
<glyph unicode="E" horiz-adv-x="1441" d="M-27 0l310 1458h1208l-76 -354h-766l-39 -182h711l-72 -338h-710l-45 -213h786l-78 -371h-1229z" />
<glyph unicode="F" horiz-adv-x="1290" d="M-33 0l309 1458h1129l-78 -366h-682l-47 -224h588l-74 -344h-588l-110 -524h-447z" />
<glyph unicode="G" horiz-adv-x="1593" d="M76 598q0 385 227 639t608 254q256 0 430.5 -133t174.5 -385v-27h-424q-14 186 -205 187q-96 0 -170 -49.5t-114 -130.5t-59.5 -169t-19.5 -178q0 -297 252 -297q190 0 273 180h-205l67 314h598l-172 -803h-282l14 143q-141 -174 -403 -174q-281 0 -435.5 172t-154.5 457 z" />
<glyph unicode="H" horiz-adv-x="1554" d="M-33 0l309 1458h447l-109 -504h422l109 504h444l-309 -1458h-446l122 575h-419l-125 -575h-445z" />
<glyph unicode="I" horiz-adv-x="681" d="M-33 0l309 1458h447l-309 -1458h-447z" />
<glyph unicode="J" horiz-adv-x="1251" d="M6 348q0 96 35 266h403q-32 -149 -32 -197q0 -101 102 -102q18 0 32.5 3.5t27 11.5t20.5 14t15 21.5t12.5 21.5t10.5 26.5t6 25.5l6 30t5 27l205 962h444l-213 -1007q-53 -252 -198.5 -369t-394.5 -117q-229 0 -357.5 101.5t-128.5 281.5z" />
<glyph unicode="K" horiz-adv-x="1554" d="M-25 0l310 1458h444l-57 -278q-25 -117 -62 -236q61 78 236 242l289 272h585l-698 -600l422 -858h-506l-266 567l-160 -139l-92 -428h-445z" />
<glyph unicode="L" horiz-adv-x="1251" d="M-20 0l311 1458h446l-231 -1083h651l-80 -375h-1097z" />
<glyph unicode="M" horiz-adv-x="1933" d="M-31 0l310 1458h624l12 -450q2 -78 3 -236q0 -115 -9 -280q78 291 279 690l139 276h639l-309 -1458h-416l137 635q49 231 121 485l-31 -76q-96 -242 -202 -456l-285 -588h-334l-37 586q-14 246 -14 526q-35 -285 -78 -494l-127 -618h-422z" />
<glyph unicode="N" horiz-adv-x="1554" d="M-35 0l309 1458h443l198 -575q49 -139 86 -277q12 137 54 340l104 512h430l-309 -1458h-428l-207 582q-66 184 -84 280q-16 -143 -51 -313l-115 -549h-430z" />
<glyph unicode="O" horiz-adv-x="1630" d="M76 621q0 375 226 624.5t597 249.5q299 0 479.5 -164t180.5 -461q0 -250 -94.5 -452.5t-285 -327.5t-444.5 -125q-311 0 -485 170t-174 486zM520 600q0 -135 64.5 -208t181.5 -73q113 0 194.5 98.5t114.5 216.5t33 224q0 125 -55 203t-174 78q-92 0 -165 -53.5 t-113 -137.5t-60.5 -174t-20.5 -174z" />
<glyph unicode="P" horiz-adv-x="1441" d="M-29 0l310 1458h630q250 0 393.5 -100.5t143.5 -343.5q0 -145 -64.5 -270.5t-175.5 -196.5q-150 -96 -442 -96h-258l-94 -451h-443zM582 793h202q111 0 171.5 35.5t60.5 138.5q0 78 -47 105.5t-133 27.5h-191z" />
<glyph unicode="Q" horiz-adv-x="1630" d="M78 606q0 391 228.5 640t588.5 249q313 0 491.5 -169t178.5 -466q0 -393 -279 -672l148 -192l-232 -168l-155 203q-98 -66 -314 -66q-301 0 -478 172t-177 469zM524 602q0 -133 62.5 -209t171.5 -76q25 0 59 11l-112 145l229 170l100 -135q86 143 86 344q0 139 -62.5 213 t-178.5 74q-90 0 -162 -53.5t-112 -137.5t-60.5 -173t-20.5 -173z" />
<glyph unicode="R" horiz-adv-x="1517" d="M-31 0l307 1458h670q78 0 135.5 -4t126 -15.5t115.5 -38t89 -66.5t62.5 -104.5t20.5 -148.5q0 -162 -90 -275.5t-248 -133.5q94 -39 125 -113q29 -70 29 -178v-14q-2 -180 -2 -193q0 -125 18 -174h-436q-12 45 -12 98q0 29 3 88.5t3 89.5q0 137 -39 186.5t-172 49.5h-156 l-106 -512h-443zM586 821h256q90 0 147.5 42t57.5 130q0 127 -191 127h-207z" />
<glyph unicode="S" horiz-adv-x="1366" d="M-14 465v27h438q0 -190 221 -191q88 0 139.5 34t51.5 93q0 16 -3.5 29.5t-13.5 25t-19 20.5t-28.5 18t-35 16.5t-46.5 16.5t-50 15t-60 18.5t-68 20.5q-170 51 -268.5 142.5t-98.5 253.5q0 123 52.5 219t139.5 151.5t192.5 84t220.5 28.5q289 0 438 -117t149 -342v-12 h-415q-12 78 -55.5 111.5t-129.5 33.5q-76 0 -121 -30.5t-45 -79.5q0 -41 34 -65.5t136 -51.5q242 -66 330 -115q195 -111 195 -340q0 -131 -57.5 -232.5t-154 -159.5t-210 -87t-240.5 -29t-235.5 28t-195.5 84t-137 153.5t-50 228.5z" />
<glyph unicode="T" d="M102 1087l78 371h1264l-80 -371h-401l-232 -1087h-446l231 1087h-414z" />
<glyph unicode="U" horiz-adv-x="1554" d="M63 414q0 59 33 219l174 825h447l-180 -844q-14 -68 -15 -110q0 -82 49.5 -126t139.5 -44q66 0 113.5 26.5t76.5 80t43 97.5t31 115l174 805h442l-174 -850q-68 -328 -232.5 -479.5t-494.5 -151.5q-305 0 -466 113t-161 324z" />
<glyph unicode="V" d="M133 1458h445l16 -237q12 -168 14 -254q6 -162 6 -287q0 -146 -8 -242q88 272 238 606l186 414h467l-733 -1458h-504z" />
<glyph unicode="W" horiz-adv-x="1972" d="M133 1458h445v-475q0 -287 -23 -528q78 287 213 606l166 397h391v-414q0 -334 -25 -602q104 365 218 631l159 385h457l-702 -1458h-435v346q0 47 23 553q-86 -287 -209 -584l-131 -315h-438z" />
<glyph unicode="X" horiz-adv-x="1517" d="M-174 0l692 772l-336 686h490l61 -166q45 -125 80 -241q145 217 156 231l135 176h534l-608 -686l354 -772h-505l-91 227q-45 109 -71 217q-37 -76 -168 -235l-168 -209h-555z" />
<glyph unicode="Y" horiz-adv-x="1366" d="M98 1458h455l96 -379q20 -80 39 -194q49 98 121 209l240 364h532l-721 -934l-112 -524h-439l113 537z" />
<glyph unicode="Z" horiz-adv-x="1402" d="M-102 0l79 369l639 565q100 88 220 164q-41 0 -122 -2t-120 -2h-426l78 364h1235l-74 -352l-666 -584q-109 -96 -213 -166q109 8 250 9l500 4l-78 -369h-1302z" />
<glyph unicode="[" horiz-adv-x="833" d="M-80 -324l379 1782h672l-66 -313h-303l-248 -1157h305l-65 -312h-674z" />
<glyph unicode="\" horiz-adv-x="872" d="M-143 1497h374l785 -1532h-377z" />
<glyph unicode="]" horiz-adv-x="833" d="M-190 -324l65 312h303l246 1159h-303l65 311h674l-379 -1782h-671z" />
<glyph unicode="^" horiz-adv-x="1228" d="M98 524l361 893h313l358 -893h-323l-193 523l-190 -523h-326z" />
<glyph unicode="_" horiz-adv-x="1024" d="M0 -154h1024v-102h-1024v102z" />
<glyph unicode="`" horiz-adv-x="569" d="M-119 1473h420l221 -295h-264z" />
<glyph unicode="a" horiz-adv-x="1290" d="M-27 264q0 174 123 259t361 106q29 2 80 5t73.5 5t58.5 7t51 13.5t34.5 20.5t25.5 31.5t6 46.5q0 86 -133 86q-66 0 -100.5 -24.5t-54.5 -86.5h-379q20 106 71.5 179t130 110t161.5 51t190 14q504 0 504 -278q0 -68 -27 -186l-74 -342q-26 -128 -26 -183q0 -61 12 -98 h-408q-4 16 -4 37q0 23 4 65q-115 -137 -338 -137q-160 0 -251 80t-91 219zM381 303q0 -98 119 -98q96 0 141 50t72 153l16 65q-27 -18 -62.5 -27.5t-86 -13.5t-68.5 -8q-131 -25 -131 -121z" />
<glyph unicode="b" d="M-35 0l309 1458h404l-109 -506q117 129 297 129q170 0 269.5 -114.5t99.5 -309.5q0 -127 -34 -246.5t-98.5 -220t-171 -161t-239.5 -60.5q-231 0 -309 168l-29 -137h-389zM459 440q0 -78 39 -121t110 -43q74 0 127 61.5t73.5 136.5t20.5 149q0 165 -149 165 q-76 0 -129 -62t-72.5 -137t-19.5 -149z" />
<glyph unicode="c" horiz-adv-x="1214" d="M20 455q0 287 173.5 455.5t455.5 168.5q236 0 375 -109.5t139 -293.5v-19h-389v13q0 63 -36 98t-101 35q-80 0 -134 -68.5t-71.5 -148.5t-17.5 -160q0 -188 145 -188q74 0 113 50t63 136h389q-57 -236 -194 -344.5t-375 -108.5q-244 0 -389.5 119t-145.5 365z" />
<glyph unicode="d" d="M14 418q0 168 54.5 315.5t178.5 249.5t296 102q213 0 307 -157l113 530h403l-309 -1458h-387l8 51q4 23 14 70q-100 -147 -291 -148q-195 0 -291 120t-96 325zM422 453q0 -172 149 -172q76 0 126.5 59t67.5 130t17 144q0 72 -35.5 119t-107.5 47q-78 0 -129 -56 t-69.5 -126t-18.5 -145z" />
<glyph unicode="e" horiz-adv-x="1290" d="M33 457q0 279 174 452.5t455 173.5q250 0 390 -128t140 -355q0 -78 -16 -166h-764q-2 -14 -2 -28q0 -176 178 -177q111 0 149 82h393q-106 -342 -563 -342q-248 0 -391 118t-143 370zM444 645h369v23q0 70 -43 111.5t-115 41.5q-76 0 -132 -46t-79 -130z" />
<glyph unicode="f" horiz-adv-x="796" d="M23 0l167 805h-167l57 252h164l12 53q49 211 153.5 281.5t329.5 70.5q84 0 209 -8l-57 -270h-25q-12 0 -33.5 1t-29.5 1q-80 0 -108.5 -19.5t-45.5 -79.5l-8 -30h215l-53 -252h-207l-170 -805h-403z" />
<glyph unicode="g" horiz-adv-x="1290" d="M-45 -6h403q6 -111 127 -111q47 0 79 13.5t50.5 49.5t25.5 56.5t19 77.5l25 106q-93 -116 -267 -116h-3q-182 0 -290 112.5t-108 304.5q0 244 138.5 422t373.5 178q217 0 314 -163l28 133h392l-207 -967q-53 -250 -185.5 -348t-410.5 -98q-504 0 -504 325v25zM410 510 q0 -82 41 -128t114 -46q92 0 152.5 86t60.5 213q0 74 -38.5 119t-112.5 45q-104 0 -160.5 -89t-56.5 -200z" />
<glyph unicode="h" d="M-39 0l311 1458h398l-113 -532q144 155 345 155h3q139 0 227.5 -78.5t88.5 -203.5q0 -78 -19 -162l-137 -637h-403l120 565q12 61 13 92q0 115 -121 115q-51 0 -88 -21.5t-59.5 -62.5t-33 -74.5t-20.5 -81.5l-113 -532h-399z" />
<glyph unicode="i" horiz-adv-x="645" d="M-33 0l226 1057h403l-223 -1057h-406zM217 1176l59 282h406l-59 -282h-406z" />
<glyph unicode="j" horiz-adv-x="645" d="M-287 -336l68 313q29 -2 72 -2q109 0 129 99l211 983h405l-205 -967q-29 -139 -59.5 -216t-88 -130t-140 -69.5t-224.5 -16.5q-106 0 -168 6zM215 1176l64 282h405l-61 -282h-408z" />
<glyph unicode="k" horiz-adv-x="1251" d="M-43 0l311 1458h402l-121 -565q-6 -35 -41 -162q57 63 74 80l241 246h484l-473 -424l268 -633h-440l-144 383l-94 -78l-66 -305h-401z" />
<glyph unicode="l" horiz-adv-x="645" d="M-33 0l312 1458h403l-309 -1458h-406z" />
<glyph unicode="m" horiz-adv-x="1972" d="M-37 0l225 1057h390l-29 -135q149 165 348 165h2q231 0 275 -176q154 176 358 176q150 0 239 -81.5t89 -219.5q0 -90 -27 -211l-123 -575h-410l119 561q16 70 17 107q0 47 -30 76.5t-81 29.5q-27 0 -48.5 -8t-36.5 -18.5t-28.5 -29t-20.5 -31.5t-15.5 -37.5t-10.5 -34 t-6 -33.5l-4 -23l-117 -559h-405l121 569q14 76 14 101q0 51 -28.5 80.5t-77.5 29.5q-76 0 -113 -56t-57 -146l-123 -578h-406z" />
<glyph unicode="n" d="M-39 0l223 1057h391l-30 -135q142 163 351 163h3q145 0 234.5 -77.5t89.5 -204.5q0 -70 -21 -166l-135 -637h-410l127 598q8 41 9 61q0 53 -31 83t-86 30q-147 0 -189 -197l-120 -575h-406z" />
<glyph unicode="o" horiz-adv-x="1290" d="M25 442q0 285 173 463t461 178q236 0 382.5 -119t146.5 -352q0 -287 -173 -466t-462 -179q-240 0 -384 118t-144 357zM424 424q0 -174 143 -174q59 0 104.5 40t69 102.5t34.5 122.5t11 114q0 78 -34.5 126t-108.5 48q-59 0 -104 -40t-69 -102.5t-35 -123t-11 -113.5z" />
<glyph unicode="p" d="M-115 -342l295 1399h391l-22 -111q123 137 303 137q170 0 273.5 -119.5t103.5 -318.5q0 -121 -33 -236.5t-95.5 -215t-167 -161t-235.5 -61.5q-219 0 -309 152l-98 -465h-406zM457 446q0 -84 40 -130t113 -46q104 0 156.5 106.5t52.5 223.5q0 78 -36 123t-99 45 q-119 0 -173 -95t-54 -227z" />
<glyph unicode="q" d="M14 412q0 293 150.5 482t384.5 189q229 0 311 -168l33 142h387l-297 -1399h-403l96 446q-55 -74 -123 -103.5t-168 -29.5q-180 0 -275.5 114t-95.5 327zM418 438q0 -172 147 -172q74 0 126 56.5t71.5 127t19.5 144.5q0 76 -37.5 127t-109.5 51q-76 0 -128 -58.5 t-70.5 -130t-18.5 -145.5z" />
<glyph unicode="r" horiz-adv-x="909" d="M-45 0l223 1057h387l-37 -164q72 98 147 145t187 47q57 0 125 -14l-76 -356q-79 26 -146 26h-5q-137 0 -206 -69.5t-97 -202.5l-101 -469h-401z" />
<glyph unicode="s" horiz-adv-x="1138" d="M-35 317q0 4 1 14.5t1 20.5h373v-12q0 -115 145 -115q133 0 133 84q0 12 -3 23.5t-12 19.5t-17 14.5t-25.5 12.5t-31 10t-38 9t-42 8.5t-48 9.5t-53.5 10q-285 55 -285 287q0 104 46.5 180t125 116t166.5 57t189 17q481 0 481 -305v-30h-366q2 6 2 16q0 92 -123 92 q-51 0 -83 -22.5t-32 -59.5q0 -10 3 -19.5t8 -16.5t11.5 -13t16.5 -10t17 -7t19.5 -6.5t18.5 -4.5t19.5 -3t17.5 -2q72 -12 104.5 -19t92 -23.5t89 -37t64.5 -54.5t49.5 -82t14.5 -111q0 -106 -48 -185.5t-131 -122.5t-174.5 -63.5t-193.5 -20.5q-92 0 -174 15.5t-160 51.5 t-123 106.5t-45 170.5z" />
<glyph unicode="t" horiz-adv-x="833" d="M12 805l58 252h176l73 323h404l-70 -323h217l-57 -252h-217l-78 -346q-18 -74 -18 -103q0 -33 17.5 -50t37.5 -20t57 -3q74 0 111 4l-61 -287q-98 -16 -236 -16q-352 0 -352 245q0 47 35 205l79 371h-176z" />
<glyph unicode="u" d="M20 250q0 84 19 168l135 639h408l-125 -594q-8 -45 -8 -74q0 -49 30.5 -76.5t83.5 -27.5q141 0 185 200l122 572h404l-223 -1057h-394l31 143q-123 -174 -346 -174q-147 0 -234.5 77t-87.5 204z" />
<glyph unicode="v" horiz-adv-x="1138" d="M39 1057h410l18 -273q12 -164 12 -266q0 -82 -4 -158q41 143 131 326l182 371h424l-569 -1057h-477z" />
<glyph unicode="w" horiz-adv-x="1781" d="M49 1057h397l17 -342q6 -178 6 -205q0 -47 -6 -143q41 139 149 389l131 301h385l13 -307q6 -190 6 -213q0 -57 -6 -162q43 143 149 385l131 297h428l-553 -1057h-419l-17 381q-4 78 -4 180q0 68 4 117q-39 -119 -117 -295l-168 -383h-419z" />
<glyph unicode="x" horiz-adv-x="1138" d="M-150 0l480 565l-244 492h412l51 -127q16 -41 31 -105q39 70 63 105l90 127h445l-424 -510l266 -547h-410l-61 135q-27 63 -51 139q-41 -66 -74 -110l-125 -164h-449z" />
<glyph unicode="y" horiz-adv-x="1138" d="M-109 -334l66 320q43 -6 96 -6q86 0 118 20t32 76q0 53 -29 182l-158 799h410l39 -324q31 -242 31 -387q41 166 139 393l137 318h422l-549 -1051q-76 -143 -133 -211.5t-147.5 -102.5t-239.5 -34q-133 0 -234 8z" />
<glyph unicode="z" horiz-adv-x="1138" d="M-102 0l65 303l389 307q63 51 221 156q-27 0 -57.5 -1t-89.5 -1h-322l64 293h962l-65 -307l-490 -388q-43 -37 -112 -77q27 0 117 4t139 4h293l-62 -293h-1052z" />
<glyph unicode="{" horiz-adv-x="833" d="M-20 477l38 180q117 23 186.5 74t92.5 158l47 223q16 80 50 140.5t84 97t100.5 59.5t121 33t120.5 13t126 3l-39 -180q-201 -27 -248 -236l-20 -92q-41 -182 -130 -273t-267 -110q133 -14 192.5 -73.5t59.5 -169.5q0 -53 -22.5 -158t-22.5 -150q0 -139 157 -159l-39 -181 q-236 12 -344 73t-108 218q0 66 25.5 192t25.5 146q0 141 -186 172z" />
<glyph unicode="|" horiz-adv-x="454" d="M61 -438v2048h332v-2048h-332z" />
<glyph unicode="}" horiz-adv-x="833" d="M-188 -324l38 181q201 27 248 235l21 92q41 180 130 272.5t265 110.5q-131 14 -190.5 73.5t-59.5 170.5q0 53 22.5 157.5t22.5 149.5q0 139 -157 160l38 180q236 -12 344.5 -72.5t108.5 -218.5q0 -66 -25.5 -191.5t-25.5 -146.5q0 -141 186 -172l-39 -180 q-117 -23 -186.5 -73t-91.5 -158l-49 -223q-20 -96 -69.5 -164t-103 -103t-136.5 -53t-142 -22.5t-149 -4.5z" />
<glyph unicode="~" horiz-adv-x="1228" d="M-35 289q59 483 342 483q100 0 230 -49q242 -94 305 -94q57 0 93 38t58 126h199q-8 -102 -43 -206t-116 -191t-187 -87q-98 0 -289 72q-16 6 -52 20.5t-53.5 20.5t-45 15t-51 12.5t-46.5 3.5q-104 0 -147 -164h-197z" />
<glyph unicode="&#xa3;" horiz-adv-x="1368" d="M63 211q129 74 195 149.5t66 200.5v29h-220l52 252h137q-45 100 -45 190q0 199 158.5 323t412.5 124q248 0 382 -117t134 -330q0 -25 -2 -47h-391q2 18 2 35q0 63 -33.5 98t-97 35t-100.5 -39t-37 -104q0 -76 33 -168h258l-52 -252h-192q-10 -137 -143 -271q37 16 116 17 q35 0 117 -14q70 -14 107 -15q106 0 202 66l103 -287q-156 -106 -359 -106q-72 0 -264 36q-106 23 -194 23q-131 0 -232 -64z" />
<glyph unicode="&#xa9;" horiz-adv-x="1638" d="M39 731.5q0 317.5 224 541.5t541.5 224t543 -224t225.5 -541.5t-224.5 -542t-542 -224.5t-542.5 224.5t-225 542zM213 731q0 -246 173 -419t419 -173t420 173t174 419t-174 419t-420 173t-419 -173t-173 -419zM397 731q0 201 114 329t296 128q158 0 265.5 -96.5 t119.5 -257.5h-215q-25 156 -160 155q-74 0 -120 -66.5t-46 -187.5q0 -123 47 -189.5t131 -66.5q68 0 101 35t49 115h215q-18 -160 -120.5 -254t-252.5 -94q-184 0 -304 129t-120 321z" />
<glyph unicode="&#xab;" horiz-adv-x="909" d="M12 383l72 340l383 260l-64 -313l-200 -150l139 -149l-57 -277zM418 383l69 338l385 262l-61 -311l-203 -152l140 -149l-58 -279z" />
<glyph unicode="&#xad;" horiz-adv-x="833" d="M27 377l71 338h639l-71 -338h-639z" />
<glyph unicode="&#xae;" horiz-adv-x="819" d="M106 1120q0 158 111 267.5t266.5 109.5t266 -110.5t110.5 -266t-111.5 -265.5t-265.5 -110q-156 0 -266.5 111t-110.5 264zM186 1120q0 -123 87 -209t210 -86t210 87t87 208q0 123 -87 210t-210 87t-210 -88t-87 -209zM317 909v422h199q68 0 109 -32.5t41 -94.5 q0 -76 -74 -100q41 -20 52 -45t15 -76l3 -25q6 -43 8 -49h-119q-8 25 -8 58q0 55 -14.5 71.5t-63.5 16.5h-23v-146h-125zM442 1147h27q72 0 72 49q0 45 -70 45h-29v-94z" />
<glyph unicode="&#xbb;" horiz-adv-x="909" d="M-39 96l64 312l198 151l-137 148l59 278l271 -289l-72 -340zM367 96l63 314l199 149l-140 150l60 276l270 -289l-69 -340z" />
<glyph unicode="&#x401;" horiz-adv-x="1441" d="M-27 0l310 1458h1208l-76 -354h-766l-39 -182h711l-72 -338h-710l-45 -213h786l-78 -371h-1229zM498 1575l59 280h358l-59 -280h-358zM965 1575l61 280h358l-59 -280h-360z" />
<glyph unicode="&#x402;" horiz-adv-x="1755" d="M145 1083l80 375h1278l-80 -375h-450l-62 -292q53 51 146.5 92t183.5 41q205 0 315.5 -118t110.5 -323q0 -299 -203.5 -492.5t-513.5 -193.5h-92l72 338h51q104 0 171 94.5t67 202.5q0 154 -152 154q-98 0 -163.5 -65.5t-88.5 -180.5l-72 -340h-456l229 1083h-371z" />
<glyph unicode="&#x403;" horiz-adv-x="1251" d="M-27 0l312 1458h1095l-80 -375h-647l-231 -1083h-449zM553 1569l229 297h428l-389 -297h-268z" />
<glyph unicode="&#x404;" horiz-adv-x="1554" d="M86 618q0 381 213 627t580 246q283 0 450.5 -146.5t167.5 -392.5v-18h-430q-16 201 -203 201q-190 0 -280 -228h397l-68 -323h-381q8 -127 67.5 -197t162.5 -70q197 0 252 236h442q-55 -287 -246.5 -437.5t-480.5 -150.5q-307 0 -475 171t-168 482z" />
<glyph unicode="&#x405;" horiz-adv-x="1366" d="M-14 465v27h438q0 -190 221 -191q88 0 139.5 34t51.5 93q0 16 -3.5 29.5t-13.5 25t-19 20.5t-28.5 18t-35 16.5t-46.5 16.5t-50 15t-60 18.5t-68 20.5q-170 51 -268.5 142.5t-98.5 253.5q0 123 52.5 219t139.5 151.5t192.5 84t220.5 28.5q289 0 438 -117t149 -342v-12 h-415q-12 78 -55.5 111.5t-129.5 33.5q-76 0 -121 -30.5t-45 -79.5q0 -41 34 -65.5t136 -51.5q242 -66 330 -115q195 -111 195 -340q0 -131 -57.5 -232.5t-154 -159.5t-210 -87t-240.5 -29t-235.5 28t-195.5 84t-137 153.5t-50 228.5z" />
<glyph unicode="&#x406;" horiz-adv-x="681" d="M-33 0l309 1458h447l-309 -1458h-447z" />
<glyph unicode="&#x407;" horiz-adv-x="681" d="M-33 0l309 1458h447l-309 -1458h-447zM88 1575l59 280h359l-60 -280h-358zM555 1575l61 280h359l-60 -280h-360z" />
<glyph unicode="&#x408;" horiz-adv-x="1251" d="M6 348q0 96 35 266h403q-33 -154 -32 -200q0 -98 102 -99q18 0 32.5 3.5t27 11.5t20.5 14t15 21.5t12.5 21.5t10.5 26.5t6 25.5l6 30t5 27l205 962h444l-213 -1007q-53 -252 -198.5 -369t-394.5 -117q-229 0 -357.5 101.5t-128.5 281.5z" />
<glyph unicode="&#x409;" horiz-adv-x="2252" d="M-102 6l73 346q31 -23 99 -22q90 0 141 115.5t108 385.5l134 627h1132l-104 -493h149q100 0 174 -8.5t146.5 -34t119 -68.5t75 -116.5t28.5 -174.5q0 -145 -64.5 -270t-175.5 -197q-150 -96 -442 -96h-662l232 1083h-248l-18 -86q-96 -451 -166 -618q-119 -299 -338 -375 q-90 -31 -201 -31q-119 0 -192 33zM1350 340h161q111 0 171.5 36t60.5 138q0 78 -46 102.5t-134 24.5h-150z" />
<glyph unicode="&#x40a;" horiz-adv-x="2252" d="M-33 0l309 1458h447l-107 -493h410l107 493h444l-104 -493h149q100 0 174 -8.5t146.5 -34t118.5 -68.5t75 -116.5t29 -174.5q0 -145 -64.5 -270t-175.5 -197q-150 -96 -442 -96h-662l125 584h-407l-127 -584h-445zM1341 340h162q111 0 171.5 36t60.5 138 q0 78 -46.5 102.5t-134.5 24.5h-149z" />
<glyph unicode="&#x40b;" horiz-adv-x="1755" d="M125 1083l80 375h1278l-80 -375h-451l-41 -190q27 10 106 20.5t120 10.5q113 0 196.5 -14.5t165.5 -52.5t126 -119t44 -199q0 -76 -22 -183l-76 -356h-459l70 324q12 51 12 100q0 162 -170 162q-92 0 -184 -31l-119 -555h-457l232 1083h-371z" />
<glyph unicode="&#x40c;" horiz-adv-x="1554" d="M-25 0l310 1458h444l-57 -278q-25 -117 -62 -236q61 78 236 242l289 272h585l-698 -600l422 -858h-506l-266 567l-160 -139l-92 -428h-445zM737 1569l230 297h428l-389 -297h-269z" />
<glyph unicode="&#x40e;" horiz-adv-x="1366" d="M14 10l76 350q10 -12 59.5 -27.5t96.5 -15.5q49 0 91 28t54 79q6 37 -4 78l-262 956h479l45 -321q23 -158 43 -379q59 135 131 276l219 424h508l-762 -1192q-193 -303 -487 -303q-86 0 -170 15.5t-117 31.5zM487 1786q1 19 5 72h221v-17q0 -115 139 -115q152 0 201 132 h215q-25 -172 -144.5 -259.5t-294.5 -87.5q-342 0 -342 275z" />
<glyph unicode="&#x40f;" horiz-adv-x="1554" d="M0 0l309 1458h449l-228 -1077h422l228 1077h446l-309 -1458h-449l-71 -342h-416l72 342h-453z" />
<glyph unicode="&#x410;" horiz-adv-x="1478" d="M-166 0l848 1458h440l230 -1458h-443l-24 207h-477l-113 -207h-461zM571 522h281l-29 260q-12 98 -14 213q-55 -133 -154 -317z" />
<glyph unicode="&#x411;" horiz-adv-x="1517" d="M-35 0l311 1458h1207l-74 -342h-772l-41 -192h328q88 0 164.5 -16.5t150.5 -57.5t117 -121t43 -194q0 -190 -88 -318.5t-244 -179.5q-111 -37 -303 -37h-799zM473 340h297q94 0 143.5 33t49.5 127q0 109 -170 108h-265z" />
<glyph unicode="&#x412;" horiz-adv-x="1517" d="M-33 0l312 1458h675q84 0 146.5 -5t133.5 -25.5t117 -56.5t76.5 -99.5t30.5 -151.5q0 -127 -73.5 -219t-192.5 -113q203 -72 203 -299q0 -211 -154 -352q-68 -61 -161 -94t-162.5 -38t-188.5 -5h-762zM475 346h250q127 0 172 31q61 43 61 121q0 43 -18 69.5t-56 36.5 t-63.5 12t-75.5 2h-16h-197zM592 901h233q84 0 135.5 25.5t51.5 103.5q0 35 -15.5 56.5t-48.5 28.5t-52 9t-58 2h-197z" />
<glyph unicode="&#x413;" horiz-adv-x="1251" d="M-27 0l312 1458h1095l-80 -375h-647l-231 -1083h-449z" />
<glyph unicode="&#x414;" horiz-adv-x="1646" d="M-205 -340l152 713h131q264 303 395 954l27 131h1118l-229 -1085h180l-152 -713h-405l71 340h-809l-71 -340h-408zM541 373h409l152 719h-277l-20 -99q-35 -168 -113 -340t-151 -280z" />
<glyph unicode="&#x415;" horiz-adv-x="1441" d="M-27 0l310 1458h1208l-76 -354h-766l-39 -182h711l-72 -338h-710l-45 -213h786l-78 -371h-1229z" />
<glyph unicode="&#x416;" horiz-adv-x="2328" d="M-137 0l723 954l-336 504h493l256 -465l101 465h446l-100 -465l457 465h534l-616 -563l319 -895h-506l-155 582l-148 -136l-96 -446h-447l109 487l-72 109l-397 -596h-565z" />
<glyph unicode="&#x417;" horiz-adv-x="1384" d="M-14 465v27h438q0 -190 221 -191q98 0 157.5 45t59.5 131q0 145 -215 146q-16 0 -55 -1t-53 -1l59 278q25 -2 90 -2q246 0 246 152q0 53 -47 85.5t-127 32.5q-88 0 -150.5 -38.5t-72.5 -104.5h-420q33 238 216 355.5t459.5 117.5t416 -97t139.5 -263q0 -127 -73 -219.5 t-190 -126.5q94 -23 156 -102t62 -200q0 -250 -191.5 -384t-490.5 -134q-129 0 -239 28t-201 84t-143 153.5t-52 228.5z" />
<glyph unicode="&#x418;" horiz-adv-x="1554" d="M-37 0l311 1458h428l-118 -553q-49 -221 -84 -346l614 899h477l-311 -1458h-426l117 549q49 225 88 358l-617 -907h-479z" />
<glyph unicode="&#x419;" horiz-adv-x="1554" d="M-78 0l309 1458h428l-116 -553q-37 -168 -84 -346l612 899h477l-309 -1458h-426l117 549q57 262 88 358l-617 -907h-479zM580 1786q0 19 4 72h221v-17q0 -115 139 -115q152 0 201 132h215q-25 -172 -144.5 -259.5t-293.5 -87.5q-342 0 -342 275z" />
<glyph unicode="&#x41a;" horiz-adv-x="1554" d="M-25 0l310 1458h444l-57 -278q-25 -117 -62 -236q61 78 236 242l289 272h585l-698 -600l422 -858h-506l-266 567l-160 -139l-92 -428h-445z" />
<glyph unicode="&#x41b;" horiz-adv-x="1595" d="M-102 6l73 346q31 -23 99 -22q90 0 141 115.5t108 385.5l134 627h1153l-310 -1458h-444l229 1083h-268l-18 -86q-96 -451 -166 -618q-119 -299 -338 -375q-90 -31 -201 -31q-119 0 -192 33z" />
<glyph unicode="&#x41c;" horiz-adv-x="1933" d="M-31 0l310 1458h624l12 -450q2 -78 3 -236q0 -115 -9 -280q78 291 279 690l139 276h639l-309 -1458h-416l137 635q49 231 121 485l-31 -76q-96 -242 -202 -456l-285 -588h-334l-37 586q-14 246 -14 526q-35 -285 -78 -494l-127 -618h-422z" />
<glyph unicode="&#x41d;" horiz-adv-x="1554" d="M-33 0l309 1458h447l-109 -504h422l109 504h444l-309 -1458h-446l122 575h-419l-125 -575h-445z" />
<glyph unicode="&#x41e;" horiz-adv-x="1630" d="M76 621q0 375 226 624.5t597 249.5q299 0 479.5 -164t180.5 -461q0 -250 -94.5 -452.5t-285 -327.5t-444.5 -125q-311 0 -485 170t-174 486zM520 600q0 -135 64.5 -208t181.5 -73q113 0 194.5 98.5t114.5 216.5t33 224q0 125 -55 203t-174 78q-92 0 -165 -53.5 t-113 -137.5t-60.5 -174t-20.5 -174z" />
<glyph unicode="&#x41f;" horiz-adv-x="1554" d="M-33 0l309 1458h1313l-309 -1458h-446l231 1083h-420l-233 -1083h-445z" />
<glyph unicode="&#x420;" horiz-adv-x="1441" d="M-29 0l310 1458h630q250 0 393.5 -100.5t143.5 -343.5q0 -145 -64.5 -270.5t-175.5 -196.5q-150 -96 -442 -96h-258l-94 -451h-443zM582 793h202q111 0 171.5 35.5t60.5 138.5q0 78 -47 105.5t-133 27.5h-191z" />
<glyph unicode="&#x421;" horiz-adv-x="1554" d="M86 618q0 381 213 627t580 246q283 0 450.5 -146.5t167.5 -392.5q0 -20 -2 -37h-428q-6 219 -203 220q-88 0 -155.5 -50.5t-104.5 -130.5t-55.5 -163.5t-18.5 -165.5q0 -147 60.5 -227.5t171.5 -80.5q197 0 252 236h442q-55 -287 -246.5 -437.5t-480.5 -150.5 q-307 0 -475 171t-168 482z" />
<glyph unicode="&#x422;" d="M102 1087l78 371h1264l-80 -371h-401l-232 -1087h-446l231 1087h-414z" />
<glyph unicode="&#x423;" horiz-adv-x="1366" d="M14 10l76 350q10 -12 59.5 -27.5t96.5 -15.5q49 0 91 28t54 79q6 37 -4 78l-262 956h479l45 -321q23 -158 43 -379q59 135 131 276l219 424h508l-762 -1192q-193 -303 -487 -303q-86 0 -170 15.5t-117 31.5z" />
<glyph unicode="&#x424;" horiz-adv-x="1918" d="M74 655q0 205 104.5 357.5t273.5 228.5t373 76h43l31 141h438l-30 -145q258 -12 401 -156.5t143 -353.5q0 -205 -104.5 -357.5t-273 -228.5t-373.5 -76h-43l-31 -141h-438l30 145q-258 12 -401 156.5t-143 353.5zM524 672q0 -193 164 -209l111 534h-8q-125 0 -196 -98 t-71 -227zM1126 461h9q125 0 195.5 98t70.5 227q0 193 -164 209z" />
<glyph unicode="&#x425;" horiz-adv-x="1517" d="M-174 0l692 772l-336 686h490l61 -166q45 -125 80 -241q145 217 156 231l135 176h534l-608 -686l354 -772h-505l-91 227q-45 109 -71 217q-37 -76 -168 -235l-168 -209h-555z" />
<glyph unicode="&#x426;" horiz-adv-x="1593" d="M-14 0l309 1458h448l-227 -1077h402l227 1077h446l-227 -1077h180l-153 -723h-416l72 342h-1061z" />
<glyph unicode="&#x427;" horiz-adv-x="1478" d="M147 897q0 98 23 203l78 358h444l-63 -297q-18 -80 -19 -139q0 -72 36 -108.5t120 -36.5q45 0 108.5 11t81.5 19l119 551h445l-312 -1458h-444l121 563q-18 -8 -110.5 -21.5t-125.5 -13.5q-262 0 -382 89.5t-120 279.5z" />
<glyph unicode="&#x428;" horiz-adv-x="2242" d="M-37 0l311 1458h439l-230 -1079h344l230 1079h440l-229 -1079h344l229 1079h438l-311 -1458h-2005z" />
<glyph unicode="&#x429;" horiz-adv-x="2312" d="M-12 0l309 1458h438l-229 -1079h344l229 1079h441l-230 -1079h344l230 1079h438l-227 -1077h180l-154 -723h-415l71 342h-1769z" />
<glyph unicode="&#x42a;" horiz-adv-x="1720" d="M106 1083l80 375h822l-99 -454h191q252 0 394 -99.5t142 -341.5q0 -145 -64.5 -270t-174.5 -197q-150 -96 -443 -96h-704l231 1083h-375zM772 354h203q111 0 171 36t60 138q0 78 -47 106t-133 28h-190z" />
<glyph unicode="&#x42b;" horiz-adv-x="2070" d="M-37 0l311 1458h447l-98 -454h129q252 0 394 -99.5t142 -341.5q0 -145 -64.5 -270t-174.5 -197q-150 -96 -443 -96h-643zM485 354h142q111 0 171 36t60 138q0 78 -47 106t-133 28h-129zM1350 0l311 1458h446l-311 -1458h-446z" />
<glyph unicode="&#x42c;" horiz-adv-x="1441" d="M-37 0l311 1458h447l-98 -454h190q252 0 394.5 -99.5t142.5 -341.5q0 -145 -64.5 -270t-175.5 -197q-150 -96 -442 -96h-705zM485 354h203q111 0 171.5 36t60.5 138q0 78 -47.5 106t-133.5 28h-190z" />
<glyph unicode="&#x42d;" horiz-adv-x="1554" d="M68 504q0 20 2 37h428q6 -219 202 -219q207 0 295 262h-422l70 321h387q-14 113 -72.5 173.5t-154.5 60.5q-172 0 -238 -185h-446q66 262 253 399.5t464 137.5q307 0 475 -171t168 -482q0 -381 -213 -627t-580 -246q-283 0 -450.5 146.5t-167.5 392.5z" />
<glyph unicode="&#x42e;" horiz-adv-x="2240" d="M-33 0l309 1458h447l-111 -510h213q80 250 269.5 398.5t455.5 148.5q281 0 450 -164t169 -461q0 -250 -89 -452.5t-267.5 -327.5t-417.5 -125q-283 0 -446 160t-173 457h-237l-127 -582h-445zM1214 600q0 -135 56.5 -208t156.5 -73q74 0 134.5 56.5t94.5 142.5t51 175 t17 165q0 125 -47 203t-151 78q-80 0 -143.5 -53.5t-98.5 -137.5t-52.5 -174t-17.5 -174z" />
<glyph unicode="&#x42f;" horiz-adv-x="1517" d="M-164 0l549 614q-207 102 -207 355q0 74 36 154.5t106.5 157.5t197.5 127t287 50h749l-311 -1458h-438l113 528h-121l-416 -528h-545zM625 958q0 -127 190 -127h166l63 299h-215q-90 0 -147 -41.5t-57 -130.5z" />
<glyph unicode="&#x430;" horiz-adv-x="1290" d="M-27 264q0 174 123 259t361 106q29 2 80 5t73.5 5t58.5 7t51 13.5t34.5 20.5t25.5 31.5t6 46.5q0 86 -133 86q-66 0 -100.5 -24.5t-54.5 -86.5h-379q20 106 71.5 179t130 110t161.5 51t190 14q504 0 504 -278q0 -68 -27 -186l-74 -342q-27 -133 -26 -187q0 -57 12 -94 h-408q-4 16 -4 37q0 23 4 65q-115 -137 -338 -137q-160 0 -251 80t-91 219zM381 303q0 -98 119 -98q96 0 141 50t72 153l16 65q-27 -18 -62.5 -27.5t-86 -13.5t-68.5 -8q-131 -25 -131 -121z" />
<glyph unicode="&#x431;" horiz-adv-x="1290" d="M51 461q0 131 21.5 259t74 268t158 252t254.5 167q66 25 147.5 36t135 24.5t88.5 48.5h373q-16 -86 -58.5 -151t-81.5 -99.5t-128 -63t-130 -37t-155 -26.5q-10 -2 -16.5 -3t-14.5 -2t-17 -4q-287 -47 -350 -270h6q135 197 404 197q176 0 303 -127t127 -328 q0 -270 -189.5 -451.5t-459.5 -181.5q-213 0 -352.5 141.5t-139.5 350.5zM451 432q0 -172 133 -172q76 0 124 61.5t63 132t15 146.5q0 166 -135 166q-57 0 -99 -33t-62.5 -87t-29.5 -107.5t-9 -106.5z" />
<glyph unicode="&#x432;" horiz-adv-x="1267" d="M-59 0l227 1057h647q76 0 132.5 -8.5t113.5 -32t88 -74.5t31 -131q0 -92 -53.5 -158.5t-139.5 -81.5q147 -53 148 -217q0 -152 -113 -254q-49 -45 -115.5 -68.5t-117 -27.5t-138.5 -4h-710zM391 250h158q90 0 123 22q45 33 45 88q0 84 -117 89h-49h-119zM475 653h158 q135 0 135 95q0 33 -23.5 49t-45 18t-58.5 2h-129z" />
<glyph unicode="&#x433;" horiz-adv-x="1024" d="M-33 0l226 1057h880l-65 -305h-478l-159 -752h-404z" />
<glyph unicode="&#x434;" d="M-195 -281l125 586h109q180 201 299 752h930l-160 -752h127l-125 -586h-362l59 281h-586l-59 -281h-357zM430 305h289l96 459h-192l-2 -12q-14 -84 -69.5 -228.5t-121.5 -218.5z" />
<glyph unicode="&#x435;" horiz-adv-x="1290" d="M33 457q0 279 174 452.5t455 173.5q250 0 390 -128t140 -355q0 -78 -16 -166h-764q-2 -14 -2 -28q0 -176 178 -177q111 0 149 82h393q-106 -342 -563 -342q-248 0 -391 118t-143 370zM444 645h369v23q0 70 -43 111.5t-115 41.5q-76 0 -132 -46t-79 -130z" />
<glyph unicode="&#x436;" horiz-adv-x="1855" d="M-145 0l583 653l-280 404h440l156 -332h4l71 332h388l-72 -332h4l297 332h491l-503 -445l260 -612h-439l-122 348l-86 -78l-56 -270h-387l64 303l-47 59l-283 -362h-483z" />
<glyph unicode="&#x437;" horiz-adv-x="1214" d="M-25 313q0 4 1 16.5t1 22.5h373v-16q0 -115 146 -115q76 0 124 34t48 97q0 84 -154 84q-51 0 -76 -2l45 213q49 0 80 3t66 12.5t52 32t17 59.5q0 39 -28.5 62.5t-75.5 23.5q-119 0 -150 -101h-372q49 344 559 344q477 0 477 -262q0 -86 -51 -153.5t-139 -98.5 q76 -20 117.5 -78.5t41.5 -130.5q0 -203 -157.5 -297t-427.5 -94q-100 0 -184.5 15.5t-163 51.5t-124 106.5t-45.5 170.5z" />
<glyph unicode="&#x438;" d="M-37 0l225 1057h387l-116 -549h6l414 549h413l-225 -1057h-387l121 563h-6l-418 -563h-414z" />
<glyph unicode="&#x439;" d="M-37 0l225 1057h387l-116 -549h6l414 549h413l-225 -1057h-387l121 563h-6l-418 -563h-414zM420 1403q0 35 4 55h186q-2 -6 -2 -16q0 -96 150 -96q143 0 184 112h184q-29 -158 -137 -239.5t-256 -81.5q-141 0 -227 69.5t-86 196.5z" />
<glyph unicode="&#x43a;" horiz-adv-x="1251" d="M-43 0l225 1057h393l-73 -348h6l328 348h471l-482 -443l289 -614h-442l-135 348l-129 -117l-48 -231h-403z" />
<glyph unicode="&#x43b;" horiz-adv-x="1290" d="M-150 8l62 289q61 -14 88 -14q31 0 54.5 21.5t43 67.5t31.5 86t29 105q4 16 6 25q33 123 106 469h994l-226 -1057h-401l160 752h-203q-59 -270 -125 -433q-78 -184 -178.5 -261.5t-267.5 -77.5q-27 0 -70 7t-72 13z" />
<glyph unicode="&#x43c;" horiz-adv-x="1638" d="M-39 0l225 1057h498l70 -617h2l329 617h517l-226 -1057h-375l152 662h-6l-359 -662h-239l-76 662h-6l-131 -662h-375z" />
<glyph unicode="&#x43d;" d="M-37 0l225 1057h404l-74 -348h297l74 348h403l-225 -1057h-403l86 403h-297l-86 -403h-404z" />
<glyph unicode="&#x43e;" horiz-adv-x="1290" d="M25 442q0 285 173 463t461 178q236 0 382.5 -119t146.5 -352q0 -287 -173 -466t-462 -179q-240 0 -384 118t-144 357zM424 424q0 -174 143 -174q59 0 104.5 40t69 102.5t34.5 122.5t11 114q0 78 -34.5 126t-108.5 48q-59 0 -104 -40t-69 -102.5t-35 -123t-11 -113.5z" />
<glyph unicode="&#x43f;" d="M-37 0l225 1057h1104l-225 -1057h-403l159 752h-297l-159 -752h-404z" />
<glyph unicode="&#x440;" d="M-115 -342l295 1399h391l-22 -111q123 137 303 137q170 0 273.5 -119.5t103.5 -318.5q0 -121 -33 -236.5t-95.5 -215t-167 -161t-235.5 -61.5q-219 0 -309 152l-98 -465h-406zM457 446q0 -84 40 -130t113 -46q104 0 156.5 106.5t52.5 223.5q0 78 -36 123t-99 45 q-119 0 -173 -95t-54 -227z" />
<glyph unicode="&#x441;" horiz-adv-x="1214" d="M20 455q0 287 173.5 455.5t455.5 168.5q236 0 375 -109.5t139 -293.5v-19h-389v13q0 63 -36 98t-101 35q-80 0 -134 -68.5t-71.5 -148.5t-17.5 -160q0 -188 145 -188q74 0 113 50t63 136h389q-57 -236 -194 -344.5t-375 -108.5q-244 0 -389.5 119t-145.5 365z" />
<glyph unicode="&#x442;" horiz-adv-x="1138" d="M41 752l65 305h1078l-66 -305h-338l-159 -752h-402l160 752h-338z" />
<glyph unicode="&#x443;" horiz-adv-x="1138" d="M-109 -334l66 320q43 -6 96 -6q86 0 118 20t32 76q0 53 -29 182l-158 799h410l39 -324q31 -242 31 -387q41 166 139 393l137 318h422l-549 -1051q-76 -143 -133 -211.5t-147.5 -102.5t-239.5 -34q-133 0 -234 8z" />
<glyph unicode="&#x444;" horiz-adv-x="1843" d="M14 391q0 172 58.5 325.5t188.5 260t308 106.5q76 0 137.5 -28.5t84.5 -63.5h6l98 467h391l-104 -489h6q31 45 103.5 79.5t146.5 34.5q160 0 247 -121.5t87 -295.5q0 -172 -58.5 -327t-188.5 -262.5t-308 -107.5q-76 0 -137.5 31t-84.5 66h-6l-90 -422h-391l96 444h-6 q-33 -47 -105.5 -83t-144.5 -36q-160 0 -247 123t-87 299zM414 414q0 -63 30.5 -101.5t92.5 -38.5q33 0 68.5 16.5t49.5 41.5l84 389q-8 23 -39.5 42t-62.5 19q-78 0 -131 -65.5t-72.5 -144t-19.5 -158.5zM1047 336q8 -23 39.5 -42.5t62.5 -19.5q78 0 131 66t72.5 144.5 t19.5 158.5q0 63 -30.5 101t-92.5 38q-33 0 -68.5 -16t-50.5 -41z" />
<glyph unicode="&#x445;" horiz-adv-x="1138" d="M-150 0l480 565l-244 492h412l51 -127q16 -41 31 -105q39 70 63 105l90 127h445l-424 -510l266 -547h-410l-61 135q-27 63 -51 139q-41 -66 -74 -110l-125 -164h-449z" />
<glyph unicode="&#x446;" horiz-adv-x="1366" d="M-20 0l223 1057h403l-157 -748h296l158 748h404l-158 -748h139l-125 -590h-368l59 281h-874z" />
<glyph unicode="&#x447;" horiz-adv-x="1251" d="M76 629q0 63 18 147l60 281h403l-49 -230q-10 -55 -10 -84q0 -57 27.5 -81.5t84.5 -24.5q66 0 123 33l82 387h404l-226 -1057h-375l89 416q-184 -61 -338 -62q-293 0 -293 275z" />
<glyph unicode="&#x448;" horiz-adv-x="1884" d="M-39 0l225 1057h396l-160 -748h240l159 748h393l-159 -748h239l160 748h395l-225 -1057h-1663z" />
<glyph unicode="&#x449;" horiz-adv-x="1925" d="M-18 0l223 1057h395l-158 -748h240l158 748h393l-158 -748h240l158 748h395l-158 -748h137l-125 -590h-368l59 281h-1431z" />
<glyph unicode="&#x44a;" horiz-adv-x="1404" d="M23 752l65 305h676l-70 -330h215q182 0 285.5 -71.5t103.5 -247.5q0 -104 -47 -194.5t-127 -143.5q-109 -70 -321 -70h-668l162 752h-274zM594 256h125q80 0 124 26.5t44 100.5q0 57 -35 76.5t-96 19.5h-115z" />
<glyph unicode="&#x44b;" horiz-adv-x="1746" d="M-41 0l225 1057h396l-70 -330h180q182 0 285.5 -71.5t103.5 -247.5q0 -104 -47 -194.5t-127 -143.5q-109 -70 -321 -70h-625zM410 256h90q80 0 124 26.5t44 100.5q0 57 -35 76.5t-96 19.5h-80zM1098 0l225 1057h393l-225 -1057h-393z" />
<glyph unicode="&#x44c;" horiz-adv-x="1228" d="M-39 0l225 1057h404l-70 -330h215q182 0 285.5 -71.5t103.5 -247.5q0 -104 -47 -194.5t-127 -143.5q-109 -70 -321 -70h-668zM420 256h125q80 0 124 26.5t44 100.5q0 57 -35 76.5t-96 19.5h-115z" />
<glyph unicode="&#x44d;" horiz-adv-x="1214" d="M-29 375v18h389v-12q0 -63 36 -98t102 -35q137 0 194 186h-262l39 201h252q-4 178 -146 178q-109 0 -161 -139h-391q61 211 196 308t361 97q244 0 389 -118.5t145 -364.5q0 -287 -173 -456t-456 -169q-236 0 -375 109.5t-139 294.5z" />
<glyph unicode="&#x44e;" horiz-adv-x="1818" d="M-37 0l225 1057h396l-78 -359h170q61 178 207.5 281.5t347.5 103.5q221 0 359.5 -119t138.5 -352q0 -287 -163 -466t-433 -179q-219 0 -354.5 110.5t-143.5 338.5h-189l-88 -416h-395zM1024 424q0 -174 125 -174q66 0 112 70.5t61 151.5t15 157q0 174 -123 174 q-51 0 -90 -40t-59.5 -102.5t-30.5 -123t-10 -113.5z" />
<glyph unicode="&#x44f;" horiz-adv-x="1251" d="M-176 0l397 444q-150 76 -149 258q0 53 25.5 111.5t76.5 115t142.5 92.5t207.5 36h690l-225 -1057h-401l82 383h-56l-301 -383h-489zM477 694q0 -92 137 -92h101l45 217h-135q-63 0 -105.5 -30.5t-42.5 -94.5z" />
<glyph unicode="&#x451;" horiz-adv-x="1290" d="M33 457q0 279 174 452.5t455 173.5q250 0 390 -128t140 -355q0 -78 -16 -166h-764q-2 -14 -2 -28q0 -176 178 -177q111 0 149 82h393q-106 -342 -563 -342q-248 0 -391 118t-143 370zM289 1178l59 280h359l-60 -280h-358zM444 645h369v23q0 70 -43 111.5t-115 41.5 q-76 0 -132 -46t-79 -130zM756 1178l61 280h359l-60 -280h-360z" />
<glyph unicode="&#x452;" horiz-adv-x="1290" d="M-41 0l178 838h-92l51 245h92l80 375h404l-80 -375h401l-51 -245h-401l-56 -263q160 164 342 164q315 0 316 -295q0 -72 -19 -157l-18 -84q-27 -127 -59.5 -214t-90 -173t-150.5 -130t-220 -44q-74 0 -183 6l64 297q111 0 155 55t80 203q12 47 13 92q0 115 -111 115 q-88 0 -133 -54.5t-68 -165.5l-41 -190h-403z" />
<glyph unicode="&#x453;" horiz-adv-x="1024" d="M-43 0l225 1057h891l-65 -305h-488l-160 -752h-403zM393 1161l230 297h428l-389 -297h-269z" />
<glyph unicode="&#x454;" horiz-adv-x="1214" d="M20 455q0 287 173.5 455.5t455.5 168.5q236 0 375 -109.5t139 -293.5h-389q-2 59 -38 93t-99 34q-127 0 -186 -160h256l-43 -203h-250v-14q0 -188 145 -188q119 0 170 168h391q-57 -225 -194.5 -330t-370.5 -105q-244 0 -389.5 119t-145.5 365z" />
<glyph unicode="&#x455;" horiz-adv-x="1138" d="M-35 317q0 4 1 14.5t1 20.5h373v-12q0 -115 145 -115q133 0 133 84q0 12 -3 23.5t-12 19.5t-17 14.5t-25.5 12.5t-31 10t-38 9t-42 8.5t-48 9.5t-53.5 10q-285 55 -285 287q0 104 46.5 180t125 116t166.5 57t189 17q481 0 481 -305v-30h-366q2 6 2 16q0 92 -123 92 q-51 0 -83 -22.5t-32 -59.5q0 -10 3 -19.5t8 -16.5t11.5 -13t16.5 -10t17 -7t19.5 -6.5t18.5 -4.5t19.5 -3t17.5 -2q72 -12 104.5 -19t92 -23.5t89 -37t64.5 -54.5t49.5 -82t14.5 -111q0 -106 -48 -185.5t-131 -122.5t-174.5 -63.5t-193.5 -20.5q-92 0 -174 15.5t-160 51.5 t-123 106.5t-45 170.5z" />
<glyph unicode="&#x456;" horiz-adv-x="645" d="M-33 0l226 1057h403l-223 -1057h-406zM217 1176l59 282h406l-59 -282h-406z" />
<glyph unicode="&#x457;" horiz-adv-x="645" d="M-33 0l226 1057h403l-223 -1057h-406zM10 1178l60 280h358l-59 -280h-359zM477 1178l62 280h358l-59 -280h-361z" />
<glyph unicode="&#x458;" horiz-adv-x="645" d="M-287 -336l68 313q29 -2 72 -2q109 0 129 99l211 983h405l-205 -967q-29 -139 -59.5 -216t-88 -130t-140 -69.5t-224.5 -16.5q-106 0 -168 6zM215 1176l64 282h405l-61 -282h-408z" />
<glyph unicode="&#x459;" horiz-adv-x="1847" d="M-141 8l61 289q61 -14 88 -14q31 0 54.5 21.5t43 67.5t32 86t28.5 105q4 16 6 25q33 123 107 469h972l-75 -352h174q395 0 395 -297q0 -104 -47 -194.5t-127 -143.5q-109 -70 -322 -70h-626l161 752h-182q-61 -279 -125 -433q-78 -184 -178 -261.5t-268 -77.5 q-27 0 -70 7t-72 13zM1079 246h84q80 0 124 26.5t44 100.5q0 86 -131 86h-76z" />
<glyph unicode="&#x45a;" horiz-adv-x="1847" d="M-37 0l225 1057h404l-76 -352h256l76 352h403l-75 -352h174q393 0 393 -297q0 -106 -46 -196.5t-126 -141.5q-109 -70 -322 -70h-626l98 459h-256l-98 -459h-404zM1079 246h84q80 0 124 26.5t44 100.5q0 86 -133 86h-74z" />
<glyph unicode="&#x45b;" horiz-adv-x="1290" d="M-41 0l178 838h-92l53 245h92l80 375h404l-80 -375h401l-53 -245h-401l-56 -263q160 164 342 164q315 0 316 -295q0 -72 -19 -157l-61 -287h-404l46 211q10 47 10 84q0 115 -109 115q-88 0 -134 -55.5t-69 -164.5l-41 -190h-403z" />
<glyph unicode="&#x45c;" horiz-adv-x="1251" d="M-43 0l225 1057h393l-73 -348h6l328 348h471l-482 -443l289 -614h-442l-135 348l-129 -117l-48 -231h-403zM475 1161l230 297h428l-390 -297h-268z" />
<glyph unicode="&#x45e;" horiz-adv-x="1138" d="M-109 -334l66 320q43 -6 96 -6q86 0 118 20t32 76q0 53 -29 182l-158 799h410l39 -324q31 -242 31 -387q41 166 139 393l137 318h422l-549 -1051q-76 -143 -133 -211.5t-147.5 -102.5t-239.5 -34q-133 0 -234 8zM297 1403q0 35 4 55h186q-2 -6 -2 -16q0 -96 150 -96 q143 0 184 112h185q-29 -158 -137.5 -239.5t-256.5 -81.5q-141 0 -227 69.5t-86 196.5z" />
<glyph unicode="&#x45f;" d="M-6 0l223 1057h404l-158 -748h297l158 748h403l-223 -1057h-367l-59 -281h-369l59 281h-368z" />
<glyph unicode="&#x490;" horiz-adv-x="1251" d="M-37 0l311 1458h715l70 328h381l-150 -703h-647l-231 -1083h-449z" />
<glyph unicode="&#x491;" horiz-adv-x="1024" d="M-72 0l226 1057h559l57 268h332l-123 -573h-487l-160 -752h-404z" />
<glyph unicode="&#x2000;" horiz-adv-x="933" />
<glyph unicode="&#x2001;" horiz-adv-x="1866" />
<glyph unicode="&#x2002;" horiz-adv-x="933" />
<glyph unicode="&#x2003;" horiz-adv-x="1866" />
<glyph unicode="&#x2004;" horiz-adv-x="622" />
<glyph unicode="&#x2005;" horiz-adv-x="466" />
<glyph unicode="&#x2006;" horiz-adv-x="311" />
<glyph unicode="&#x2007;" horiz-adv-x="311" />
<glyph unicode="&#x2008;" horiz-adv-x="233" />
<glyph unicode="&#x2009;" horiz-adv-x="373" />
<glyph unicode="&#x200a;" horiz-adv-x="103" />
<glyph unicode="&#x2010;" horiz-adv-x="833" d="M27 377l71 338h639l-71 -338h-639z" />
<glyph unicode="&#x2011;" horiz-adv-x="833" d="M27 377l71 338h639l-71 -338h-639z" />
<glyph unicode="&#x2012;" horiz-adv-x="833" d="M27 377l71 338h639l-71 -338h-639z" />
<glyph unicode="&#x2013;" horiz-adv-x="1024" d="M-68 383l68 322h1022l-66 -322h-1024z" />
<glyph unicode="&#x2014;" horiz-adv-x="2048" d="M-74 383l68 322h2052l-66 -322h-2054z" />
<glyph unicode="&#x2018;" horiz-adv-x="606" d="M92 686l72 348q90 434 489 434h23l-41 -192q-98 -2 -146.5 -45t-66.5 -141h172l-86 -404h-416z" />
<glyph unicode="&#x2019;" horiz-adv-x="606" d="M88 674l41 192q98 2 146.5 45t66.5 142h-172l86 403h416l-72 -348q-90 -434 -489 -434h-23z" />
<glyph unicode="&#x201a;" horiz-adv-x="606" d="M-133 -379l41 193q98 2 146 45t67 141h-172l86 403h416l-72 -348q-90 -434 -490 -434h-22z" />
<glyph unicode="&#x201c;" horiz-adv-x="1062" d="M90 686l84 383q43 197 149.5 291t299.5 104l-37 -176q-92 -16 -137.5 -59t-65.5 -137h160l-86 -406h-367zM586 686l84 383q43 197 149 291t299 104l-37 -176q-92 -16 -137 -59t-65 -137h159l-86 -406h-366z" />
<glyph unicode="&#x201d;" horiz-adv-x="1062" d="M88 662l37 176q92 16 137 59t66 137h-160l86 406h367l-84 -383q-43 -197 -149.5 -291t-299.5 -104zM584 662l37 176q92 16 137 59t65 137h-159l86 406h366l-84 -383q-43 -197 -149.5 -291t-298.5 -104z" />
<glyph unicode="&#x201e;" horiz-adv-x="1062" d="M-131 -373l39 174q90 16 136 62.5t65 136.5h-160l86 403h366l-82 -380q-41 -190 -148.5 -292t-301.5 -104zM365 -373l38 174q90 16 136.5 62.5t64.5 136.5h-160l86 403h367l-82 -380q-41 -190 -148.5 -292t-301.5 -104z" />
<glyph unicode="&#x2022;" horiz-adv-x="1024" d="M141 729q0 154 108.5 261.5t262.5 107.5q154 2 262.5 -106.5t108.5 -262.5t-107.5 -262.5t-263.5 -108.5q-154 0 -262.5 108.5t-108.5 262.5z" />
<glyph unicode="&#x2026;" horiz-adv-x="2048" d="M-18 0l86 406h419l-84 -406h-421zM662 0l86 406h419l-84 -406h-421zM1343 0l87 406h419l-84 -406h-422z" />
<glyph unicode="&#x202f;" horiz-adv-x="373" />
<glyph unicode="&#x2039;" horiz-adv-x="493" d="M14 383l70 340l385 260l-66 -317l-202 -142l141 -153l-59 -277z" />
<glyph unicode="&#x203a;" horiz-adv-x="493" d="M-43 96l63 318l205 141l-141 154l59 276l269 -291l-70 -336z" />
<glyph unicode="&#x205f;" horiz-adv-x="466" />
<glyph unicode="&#x2122;" horiz-adv-x="2048" d="M227 1278v180h637v-180h-200v-553h-238v553h-199zM971 725v733h329l136 -424l137 424h330v-733h-213v551l-179 -551h-149l-178 551v-551h-213z" />
<glyph unicode="&#x25fc;" horiz-adv-x="1054" d="M0 0v1055h1055v-1055h-1055z" />
</font>
</defs>
</svg>
