<?xml version="1.0" standalone="no"?>
<!DOCTYPE svg PUBLIC "-//W3C//DTD SVG 1.1//EN" "http://www.w3.org/Graphics/SVG/1.1/DTD/svg11.dtd" >
<svg xmlns="http://www.w3.org/2000/svg" xmlns:xlink="http://www.w3.org/1999/xlink" version="1.1">
<metadata></metadata>
<defs>
<font id="helveticaneuecyrmedium_italic" horiz-adv-x="1138" >
<font-face units-per-em="2048" ascent="1638" descent="-410" />
<missing-glyph horiz-adv-x="569" />
<glyph horiz-adv-x="0" />
<glyph unicode="&#xd;" horiz-adv-x="681" />
<glyph unicode=" "  horiz-adv-x="569" />
<glyph unicode="&#x09;" horiz-adv-x="569" />
<glyph unicode="&#xa0;" horiz-adv-x="569" />
<glyph unicode="!" horiz-adv-x="606" d="M20 0l54 254h262l-53 -254h-263zM176 399l70 635l88 424h250l-90 -422l-199 -637h-119z" />
<glyph unicode="&#x22;" horiz-adv-x="909" d="M217 829l90 596h207l-164 -596h-133zM573 829l91 596h206l-163 -596h-134z" />
<glyph unicode="#" d="M4 399l35 164h199l67 297h-199l35 164h199l90 401h193l-88 -401h225l88 401h192l-88 -401h197l-35 -164h-196l-68 -297h197l-35 -164h-197l-88 -399h-192l88 399h-226l-88 -399h-192l88 399h-201zM432 563h225l68 297h-225z" />
<glyph unicode="$" d="M-31 387q0 29 2 57h230q-2 -23 -2 -47q0 -213 204 -243l105 501q-86 25 -142.5 48.5t-114.5 64.5t-87 104.5t-29 149.5q0 199 140.5 320.5t367.5 121.5q4 0 15.5 -1t19.5 -1l33 150h96l-35 -156q162 -18 259 -107t97 -249q0 -23 -2 -43h-217v30q0 84 -46 135.5t-128 59.5 l-96 -451q391 -96 391 -387q0 -217 -156.5 -345t-381.5 -128h-35l-37 -174h-92l37 176q-186 16 -291 126t-105 288zM360 1049q0 -84 48.5 -123t142.5 -68l92 432h-18q-115 0 -190 -68.5t-75 -172.5zM494 147h14q125 0 208 76t83 191q0 84 -48.5 134t-154.5 81z" />
<glyph unicode="%" horiz-adv-x="1933" d="M160 952q0 197 103.5 345.5t291.5 148.5q141 0 218 -80t77 -221q0 -199 -103.5 -351.5t-291.5 -152.5q-139 0 -217 82t-78 229zM328 -63l1089 1548h170l-1089 -1548h-170zM336 926q0 -152 127 -152q74 0 125 74t68.5 155.5t17.5 153.5q0 156 -119 156q-59 0 -104 -42 t-69 -105.5t-35 -125t-11 -114.5zM1075 281q0 197 103.5 345t291.5 148q141 0 218 -80t77 -221q0 -199 -103 -351.5t-292 -152.5q-139 0 -217 82t-78 230zM1251 254q0 -152 127 -152q74 0 125 74t68.5 156t17.5 153q0 156 -119 156q-59 0 -104 -42t-68.5 -105.5t-35 -125 t-11.5 -114.5z" />
<glyph unicode="&#x26;" horiz-adv-x="1366" d="M49 365q0 293 395 460q-102 168 -102 289q0 158 104.5 256t270.5 98q158 0 256 -85t98 -222q0 -74 -27.5 -135t-84 -111.5t-104.5 -82t-124 -72.5l191 -309q82 92 118 243h213q-18 -106 -78.5 -221t-142.5 -194l180 -279h-258l-80 133q-184 -162 -401 -162 q-180 0 -302 106.5t-122 287.5zM272 369q0 -90 61.5 -147.5t155.5 -57.5q156 0 281 135l-221 371q-59 -31 -96 -53.5t-84 -61.5t-72 -85t-25 -101zM549 1126q0 -76 88 -219q12 6 49 28.5t54.5 34t47 35t45 44t27.5 49t12 59.5q0 61 -42 100t-109 39q-76 0 -124 -48t-48 -122 z" />
<glyph unicode="'" horiz-adv-x="569" d="M240 829l88 596h207l-166 -596h-129z" />
<glyph unicode="(" horiz-adv-x="606" d="M55 324q0 600 502 1153h197q-475 -584 -475 -1239q0 -348 92 -619h-168q-147 330 -148 705z" />
<glyph unicode=")" horiz-adv-x="606" d="M-188 -381q475 584 475 1239q0 348 -92 619h167q148 -330 148 -705q0 -600 -502 -1153h-196z" />
<glyph unicode="*" horiz-adv-x="796" d="M172 1231l61 119l209 -107l43 232l136 -11l-50 -239l238 35l18 -132l-231 -30l106 -211l-120 -64l-107 217l-168 -188l-96 94l170 180z" />
<glyph unicode="+" horiz-adv-x="1228" d="M57 430v195h424v430h209v-430h426v-195h-426v-430h-209v430h-424z" />
<glyph unicode="," horiz-adv-x="569" d="M-59 -322l26 121q82 16 120 64.5t52 136.5h-129l58 276h276l-47 -229q-37 -178 -114 -269t-242 -100z" />
<glyph unicode="-" horiz-adv-x="796" d="M41 459l45 211h606l-45 -211h-606z" />
<glyph unicode="." horiz-adv-x="569" d="M-4 0l59 276h285l-59 -276h-285z" />
<glyph unicode="/" horiz-adv-x="720" d="M-164 -35l838 1528h203l-836 -1528h-205z" />
<glyph unicode="0" d="M25 494q0 119 22.5 244.5t74.5 252.5t124.5 226.5t183.5 162t242 62.5q221 0 327.5 -137.5t106.5 -368.5q0 -98 -16.5 -204.5t-49 -215t-87 -206t-123 -174.5t-166 -121t-209.5 -44q-219 0 -324.5 147.5t-105.5 375.5zM256 461q0 -297 219 -297q106 0 189.5 91t126.5 226 t64.5 259t21.5 218q0 293 -213 293q-109 0 -194 -90t-128 -223t-64.5 -257t-21.5 -220z" />
<glyph unicode="1" d="M231 1016l37 172q334 6 473 254h185l-305 -1442h-246l221 1040q-141 -27 -305 -26q-31 0 -60 2z" />
<glyph unicode="2" d="M-55 0q12 100 46 182t74.5 138.5t111.5 112.5t132.5 94t159.5 96q41 23 61 34q176 102 238 162q98 96 98 215q0 98 -61.5 156.5t-167.5 58.5q-135 0 -210 -87t-89 -226h-221q23 233 160 371.5t374 138.5q207 0 330 -107.5t123 -287.5q0 -143 -82 -259t-258 -223 q-39 -25 -110.5 -66.5t-101.5 -59t-80 -49.5t-73.5 -50t-55.5 -45t-52.5 -51.5t-38.5 -52.5q57 4 197 4l538 2l-45 -201h-997z" />
<glyph unicode="3" d="M-6 393q0 41 4 76h223q-2 -23 -2 -45q0 -125 67.5 -190.5t198.5 -65.5t216 80t85 205q0 211 -256 211q-39 0 -75 -2l34 174h58q324 0 323 231q0 86 -60 136t-165 50q-238 0 -285 -266h-221q33 219 171.5 339t355.5 120q195 0 315.5 -98.5t120.5 -257.5q0 -127 -70.5 -213 t-193.5 -123q188 -68 188 -293t-163 -358.5t-392 -133.5q-215 0 -346 116t-131 308z" />
<glyph unicode="4" d="M-27 338l47 211l846 897h213l-190 -920h194l-43 -188h-192l-70 -338h-233l71 338h-643zM221 524q14 0 37 1t76 1h325l138 619q-94 -113 -101 -119l-385 -416q-23 -25 -37 -39t-19 -18t-14.5 -11t-19.5 -18z" />
<glyph unicode="5" d="M4 381v22h227q6 -70 27 -118q49 -123 225 -123q141 0 232.5 99t91.5 253q0 123 -68.5 193.5t-187.5 70.5q-168 0 -252 -131l-207 6l236 772h790l-41 -204h-600l-106 -342q109 80 260 79q186 0 301 -117.5t115 -308.5q0 -160 -84 -296q-156 -264 -490 -265 q-217 0 -343 111t-126 299z" />
<glyph unicode="6" d="M45 504q0 160 48 339t124 304q182 303 510 303q188 0 304 -101.5t116 -269.5v-10h-229q-12 199 -205 199q-264 0 -396 -467q121 139 316 139q188 0 303 -117.5t115 -310.5q0 -229 -153 -385t-378 -156q-223 0 -349 141.5t-126 391.5zM276 430q0 -121 69 -194.5t181 -73.5 q127 0 209 95t82 243q0 121 -65.5 191.5t-184.5 70.5q-129 0 -210 -92t-81 -240z" />
<glyph unicode="7" d="M182 0q84 313 288 645t450 567q-18 0 -54.5 -1t-54.5 -1h-623l48 215h974l-41 -194q-254 -254 -442 -572.5t-285 -658.5h-260z" />
<glyph unicode="8" d="M-2 395q0 152 94 255.5t258 129.5q-176 92 -176 279q0 172 129 280.5t332 108.5t327.5 -98.5t124.5 -259.5q0 -123 -74.5 -215t-193.5 -117q100 -35 157.5 -121t57.5 -201q0 -209 -155.5 -335t-384.5 -126q-225 0 -360.5 114t-135.5 306zM236 399q0 -113 70.5 -177 t193.5 -64q133 0 215 77.5t82 206.5q0 236 -262 236q-137 0 -218 -76t-81 -203zM391 1040q0 -92 62.5 -145t169.5 -53q111 0 176 61.5t65 163.5t-62.5 151.5t-166.5 49.5q-113 0 -178.5 -60.5t-65.5 -167.5z" />
<glyph unicode="9" d="M6 356h217q18 -201 217 -200q76 0 137.5 31.5t98.5 74.5t68.5 116t46 125t32.5 132q-129 -150 -321 -150q-184 0 -298 117t-114 305q0 236 152.5 390.5t384.5 154.5q219 0 339.5 -137t120.5 -387q0 -125 -20 -252t-68.5 -256t-120 -227.5t-185 -161t-253.5 -62.5 q-201 0 -317.5 104.5t-116.5 282.5zM319 920q0 -119 65 -185.5t177 -66.5q129 0 212 93t83 240q0 115 -62.5 184.5t-175.5 69.5q-127 0 -213 -96t-86 -239z" />
<glyph unicode=":" horiz-adv-x="569" d="M-2 0l59 276h277l-60 -276h-276zM160 770l59 277h277l-60 -277h-276z" />
<glyph unicode=";" horiz-adv-x="569" d="M-66 -322l27 121q82 16 120 64.5t52 136.5h-129l57 276h277l-47 -229q-37 -178 -114 -269t-243 -100zM166 770l59 277h277l-60 -277h-276z" />
<glyph unicode="&#x3c;" horiz-adv-x="1228" d="M31 426v205l1059 407v-217l-795 -293l795 -292v-222z" />
<glyph unicode="=" horiz-adv-x="1228" d="M51 209v197h1059v-197h-1059zM51 649v197h1059v-197h-1059z" />
<glyph unicode="&#x3e;" horiz-adv-x="1228" d="M86 14v222l795 292l-795 293v217l1059 -407v-205z" />
<glyph unicode="?" d="M147 997q27 227 166.5 356.5t362.5 129.5q199 0 318.5 -98.5t119.5 -262.5q0 -68 -20.5 -126t-43 -96t-76.5 -84t-86 -67.5t-104 -68.5q-41 -27 -71.5 -54.5t-48 -46t-32 -50t-18.5 -41t-13 -44t-9 -36.5h-219q37 184 91 256.5t234 187.5q172 111 172 246q0 86 -56 137 t-152 51q-233 0 -283 -289h-232zM266 0l56 254h262l-54 -254h-264z" />
<glyph unicode="@" horiz-adv-x="1638" d="M59 709q0 334 239 559t587 225q305 0 499.5 -171t194.5 -441q0 -215 -128 -377t-298 -162q-76 0 -123 41t-47 109q0 16 6 45q-102 -195 -284 -195q-125 0 -202 87t-77 226q0 199 124 347.5t288 148.5q174 0 233 -145l31 112h168l-133 -448q-25 -82 -25 -125 q0 -39 22.5 -60.5t63.5 -21.5q102 0 186 132t84 296q0 223 -161.5 362.5t-419.5 139.5q-307 0 -512 -197t-205 -491q0 -281 193.5 -460t496.5 -179q293 -1 563 198l58 -78q-160 -117 -307.5 -169t-319.5 -52q-334 0 -564.5 206t-230.5 538zM621 645q0 -84 35.5 -133 t99.5 -49q74 0 135 83t90 180t29 167q0 59 -37 98t-94 39q-76 0 -137.5 -70.5t-91 -156.5t-29.5 -158z" />
<glyph unicode="A" horiz-adv-x="1402" d="M-123 0l873 1458h272l254 -1458h-260l-60 385h-577l-223 -385h-279zM485 580h445l-45 299q-41 281 -45 340q-86 -170 -215 -396z" />
<glyph unicode="B" horiz-adv-x="1441" d="M2 0l307 1458h553q102 0 179 -12t153 -46t117 -104.5t41 -177.5q0 -137 -75 -230t-202 -120q102 -33 158.5 -109.5t56.5 -189.5q0 -150 -92 -276.5t-235 -165.5q-102 -27 -330 -27h-631zM293 201h328q139 0 209.5 14t117.5 53q88 74 88 197q0 68 -36.5 120t-100.5 66 q-59 14 -201 15h-305zM430 846h324q180 0 247 47q94 68 95 192q0 59 -34 101.5t-91 54.5q-53 10 -164 10h-291z" />
<glyph unicode="C" horiz-adv-x="1478" d="M74 604q0 238 92 437.5t276.5 324.5t425.5 125q254 0 408 -135t154 -359v-26h-248q-6 160 -88 234.5t-246 74.5q-125 0 -227.5 -62.5t-165 -162t-95 -216t-32.5 -235.5q0 -203 97 -316.5t271 -113.5q156 0 261.5 87t146.5 247h258q-53 -254 -234.5 -398.5t-443.5 -144.5 q-287 0 -448.5 169t-161.5 470z" />
<glyph unicode="D" horiz-adv-x="1478" d="M2 0l307 1458h365q197 0 278.5 -9t157.5 -42q143 -63 223 -204.5t80 -334.5q0 -274 -146.5 -512.5t-396.5 -316.5q-125 -39 -387 -39h-481zM301 213h285q205 0 332 98q106 82 172.5 233.5t66.5 313.5q0 133 -54 235.5t-171 133.5q-72 18 -201 18h-211z" />
<glyph unicode="E" horiz-adv-x="1290" d="M2 0l309 1458h1059l-45 -213h-805l-82 -391h748l-41 -205h-750l-92 -436h817l-47 -213h-1071z" />
<glyph unicode="F" horiz-adv-x="1214" d="M2 0l311 1458h1000l-47 -213h-744l-84 -405h652l-43 -205h-652l-135 -635h-258z" />
<glyph unicode="G" horiz-adv-x="1554" d="M86 594q0 381 218 637t595 256q250 0 415 -125t165 -369h-248q-8 139 -96 211t-244 72q-178 0 -307 -104.5t-186.5 -257t-57.5 -324.5q0 -201 101.5 -311.5t285.5 -110.5q356 0 461 414h-402l43 196h627l-164 -778h-164l-2 152q-162 -188 -444 -189q-279 0 -440 170 q-156 168 -156 461z" />
<glyph unicode="H" horiz-adv-x="1478" d="M-10 0l309 1458h254l-123 -588h682l123 588h254l-305 -1458h-256l137 653h-680l-139 -653h-256z" />
<glyph unicode="I" horiz-adv-x="569" d="M4 0l309 1458h256l-307 -1458h-258z" />
<glyph unicode="J" horiz-adv-x="1099" d="M4 324q0 92 23 188h239q-24 -102 -24 -163q0 -177 184 -177q66 0 110 19.5t71.5 73.5t36.5 82t26 110q2 8 3 13t3 11l207 977h254l-197 -940q-25 -115 -43 -182.5t-57 -147t-90.5 -122.5t-134.5 -72t-195 -29q-188 0 -302 88t-114 271z" />
<glyph unicode="K" horiz-adv-x="1402" d="M4 0l307 1458h254l-147 -676q47 47 760 676h342l-703 -600l459 -858h-289l-364 698l-267 -221l-98 -477h-254z" />
<glyph unicode="L" horiz-adv-x="1175" d="M6 0l311 1458h256l-264 -1241h744l-45 -217h-1002z" />
<glyph unicode="M" horiz-adv-x="1820" d="M-2 0l311 1458h353l114 -799q35 -248 35 -393q111 254 180 375l471 817h361l-310 -1458h-243l139 637q74 340 154 614q-123 -244 -232 -438l-465 -813h-209l-131 850q-39 250 -43 399q-23 -193 -112 -631l-127 -618h-246z" />
<glyph unicode="N" horiz-adv-x="1478" d="M-10 0l311 1458h266l359 -868q68 -166 104 -287q14 139 80 453l147 702h246l-309 -1458h-266l-363 870q-76 186 -100 279q-10 -111 -68 -389l-159 -760h-248z" />
<glyph unicode="O" horiz-adv-x="1554" d="M68 608q0 373 220 626t586 253q285 0 452 -169t167 -456q0 -246 -93 -448.5t-278.5 -327.5t-429.5 -125q-293 0 -458.5 172t-165.5 475zM322 604q0 -201 102 -316.5t283 -115.5q170 0 293.5 109.5t179 262t55.5 316.5q0 193 -94.5 303.5t-282.5 110.5q-174 0 -299 -102.5 t-181 -251t-56 -316.5z" />
<glyph unicode="P" horiz-adv-x="1366" d="M8 0l311 1458h535q145 0 227 -19.5t144 -70.5q133 -111 133 -307q0 -178 -104.5 -317.5t-274.5 -163.5q-104 -16 -254 -17h-342l-119 -563h-256zM428 768h301q205 0 275 51q47 35 76.5 94.5t29.5 124.5q0 70 -26.5 115t-79 64.5t-99.5 24.5t-119 5h-258z" />
<glyph unicode="Q" horiz-adv-x="1554" d="M70 604q0 385 227 634t580 249q289 0 454.5 -171t165.5 -462q0 -211 -79 -396.5t-222 -307.5l172 -179l-141 -127l-193 199q-150 -80 -348 -80q-289 0 -452.5 175t-163.5 466zM326 606q0 -201 101 -317.5t280 -116.5q84 0 176 35l-131 135l141 129l145 -152 q203 219 203 535q0 197 -100.5 308.5t-276.5 111.5q-231 0 -384.5 -190.5t-153.5 -477.5z" />
<glyph unicode="R" horiz-adv-x="1441" d="M2 0l307 1458h582q154 0 244 -20q123 -29 191.5 -122t68.5 -229q0 -158 -88 -265t-240 -134q82 -35 116 -92t34 -162q0 -14 -8.5 -135t-8.5 -180q0 -74 23 -119h-258q-16 35 -17 106q0 33 11.5 151t11.5 157q0 121 -57.5 153.5t-194.5 32.5h-336l-127 -600h-254zM424 793 h403q135 0 207 47q106 74 107 215q0 63 -23.5 104t-68.5 59.5t-89.5 24.5t-107.5 6h-332z" />
<glyph unicode="S" horiz-adv-x="1327" d="M20 451q0 16 3 30h249v-24q0 -287 334 -287q152 0 243 66.5t91 177.5q0 53 -20.5 91t-67.5 62.5t-77 34.5t-95 29q-98 27 -151.5 43t-130 52t-116.5 75t-70 104.5t-30 147.5q0 197 150.5 314.5t400.5 117.5q258 0 396.5 -111.5t138.5 -320.5v-25h-246v14q0 246 -289 246 q-139 0 -222 -58.5t-83 -154.5q0 -49 20.5 -84t66.5 -59.5t88 -38.5t116 -33q88 -23 140 -39t124 -50t109.5 -75t66.5 -107.5t29 -152.5q0 -231 -175 -349t-421 -118q-279 0 -425.5 123t-146.5 359z" />
<glyph unicode="T" horiz-adv-x="1214" d="M117 1247l45 211h1200l-45 -211h-467l-262 -1247h-256l262 1247h-477z" />
<glyph unicode="U" horiz-adv-x="1517" d="M102 406q0 72 31 219l174 833h256l-174 -829q-29 -143 -29 -193q0 -121 81 -187.5t231 -66.5q68 0 122 13.5t92 32t69.5 58.5t49 68.5t36 89t26.5 95t25 108.5l172 811h254l-205 -979q-104 -508 -647 -508q-106 0 -203.5 23.5t-179.5 73t-131.5 136.5t-49.5 202z" />
<glyph unicode="V" horiz-adv-x="1251" d="M137 1458h260l88 -735q29 -250 35 -483q96 221 193 403l434 815h272l-801 -1458h-290z" />
<glyph unicode="W" horiz-adv-x="1896" d="M152 1458h254l26 -680q7 -223 7 -363q0 -94 -3 -151q80 213 219 520l308 674h258l41 -618q19 -314 19 -469q0 -63 -3 -99q90 248 229 570l267 616h264l-678 -1458h-260l-51 776q-10 170 -11 406q-102 -266 -198 -475l-324 -707h-266z" />
<glyph unicode="X" horiz-adv-x="1327" d="M-109 0l652 766l-346 692h278l129 -276q23 -49 62 -142.5t47 -113.5q72 98 223 286l199 246h299l-603 -713l367 -745h-278l-113 244q-115 248 -148 329q-23 -23 -69.5 -86t-59.5 -79l-331 -408h-308z" />
<glyph unicode="Y" horiz-adv-x="1290" d="M104 1458h269l176 -452q41 -102 80 -220q61 94 137 193l369 479h303l-713 -893l-121 -565h-252l123 582z" />
<glyph unicode="Z" horiz-adv-x="1290" d="M-86 0l45 213l854 858q102 102 193 176q-20 0 -49 -1t-42 -1h-710l47 213h1110l-43 -209l-889 -893q-63 -63 -164 -149q39 0 116 3t116 3h659l-45 -213h-1198z" />
<glyph unicode="[" horiz-adv-x="606" d="M-66 -371l392 1844h456l-37 -177h-241l-314 -1486h242l-39 -181h-459z" />
<glyph unicode="\" horiz-adv-x="720" d="M-164 1493h203l838 -1528h-205z" />
<glyph unicode="]" horiz-adv-x="606" d="M-244 -371l39 178h242l317 1489h-241l39 177h456l-393 -1844h-459z" />
<glyph unicode="^" horiz-adv-x="1228" d="M164 555l358 870h185l358 -870h-211l-244 610l-235 -610h-211z" />
<glyph unicode="_" horiz-adv-x="1024" d="M0 -154h1024v-102h-1024v102z" />
<glyph unicode="`" horiz-adv-x="493" d="M20 1497h259l157 -295h-168z" />
<glyph unicode="a" d="M-18 258q0 119 69.5 200t163.5 113.5t211 40.5q4 0 60.5 3t91 6.5t82 11.5t69.5 22q55 33 55 125q0 131 -190 131q-211 0 -254 -174h-221q66 344 485 344q188 0 297 -69.5t109 -190.5q0 -72 -27 -186l-72 -320q-22 -94 -22 -114q0 -43 47 -43q29 0 90 10l-37 -170 q-88 -25 -153 -25q-78 0 -120 29t-48 104q-143 -141 -357 -141q-150 0 -239.5 80t-89.5 213zM217 281q0 -72 48 -112t134 -40q123 0 196 64.5t95 152.5l47 176q-20 -16 -66 -28.5t-78 -16.5t-93 -10l-60 -4q-223 -20 -223 -182z" />
<glyph unicode="b" horiz-adv-x="1251" d="M-25 0l314 1458h229l-110 -526q130 151 322 151h3q184 0 292 -118.5t108 -323.5q0 -262 -151 -466t-402 -204q-272 0 -349 209l-36 -180h-220zM299 410q0 -119 65.5 -188.5t176.5 -69.5q150 0 254 140t104 339q0 125 -60.5 198.5t-181.5 73.5q-170 0 -264 -155.5 t-94 -337.5z" />
<glyph unicode="c" d="M47 424q0 274 164 467.5t436 193.5q193 0 308.5 -99t115.5 -265v-14h-227v8q0 90 -54.5 141t-152.5 51q-119 0 -203 -77.5t-118.5 -183t-34.5 -222.5q0 -276 241 -277q92 0 160 56.5t100 161.5h234q-53 -193 -184.5 -294.5t-327.5 -101.5q-217 0 -337 120t-120 335z" />
<glyph unicode="d" horiz-adv-x="1251" d="M41 397q0 174 64.5 328t199.5 257t313 103q244 0 320 -180l115 553h229l-307 -1458h-219l30 147q-111 -176 -344 -176q-190 0 -295.5 112t-105.5 314zM276 410q0 -123 61.5 -189.5t172.5 -66.5q90 0 162.5 48t115.5 123.5t66 161.5t23 170q0 113 -62.5 177.5t-173.5 64.5 q-158 0 -261.5 -138t-103.5 -351z" />
<glyph unicode="e" d="M20 430q0 281 168 468t418 187q207 0 326 -120.5t119 -331.5q0 -70 -15 -166h-786q-4 -57 -4 -61q0 -125 67.5 -196t184.5 -71q190 0 262 189h231q-43 -176 -181 -269.5t-329 -93.5q-217 0 -339 124t-122 341zM276 627h553v28q0 125 -59 190.5t-172 65.5 q-117 0 -202 -74.5t-120 -209.5z" />
<glyph unicode="f" horiz-adv-x="645" d="M37 0l188 889h-176l39 168h174l35 143q31 127 107.5 200t228.5 73q72 0 172 -17l-37 -178q-49 10 -88 10q-47 0 -77 -10t-48 -38t-25.5 -47t-19.5 -67q-2 -6 -2 -8t-2 -6t-2 -8l-12 -47h206l-36 -168h-203l-189 -889h-233z" />
<glyph unicode="g" horiz-adv-x="1214" d="M-43 -80h233q12 -172 226 -172q80 0 136 22.5t90 71.5t52.5 97.5t38.5 130.5l23 92q-115 -152 -320 -152q-176 0 -286.5 117t-110.5 305q0 164 60.5 309.5t187.5 243.5t295 98q244 0 329 -204l35 178h221l-211 -994q-16 -78 -35.5 -135t-60.5 -125.5t-97 -112.5 t-150.5 -75t-215.5 -31q-199 0 -319.5 87t-120.5 233v16zM270 442q0 -121 62.5 -189.5t171.5 -68.5q143 0 241.5 135.5t98.5 333.5q0 113 -61.5 181.5t-172.5 68.5q-158 0 -249 -145.5t-91 -315.5z" />
<glyph unicode="h" horiz-adv-x="1175" d="M-29 0l310 1458h229l-121 -553q154 178 369 178q139 0 223 -74.5t84 -197.5q0 -63 -25 -176l-133 -635h-235l129 606q18 92 18 142q0 145 -162 145q-137 0 -223 -98.5t-117 -243.5l-116 -551h-230z" />
<glyph unicode="i" horiz-adv-x="493" d="M-23 0l224 1057h233l-223 -1057h-234zM240 1235l49 229h231l-49 -229h-231z" />
<glyph unicode="j" horiz-adv-x="493" d="M-268 -395l41 188q39 -8 65 -8q55 0 81 29.5t48 142.5l232 1100h231l-213 -1024q-2 -6 -4 -17q-47 -225 -90 -297q-76 -125 -270 -125q-61 0 -121 11zM236 1233l49 231h231l-47 -231h-233z" />
<glyph unicode="k" horiz-adv-x="1062" d="M-23 0l312 1458h225l-178 -831l485 430h297l-469 -398l264 -659h-256l-188 516l-188 -156l-76 -360h-228z" />
<glyph unicode="l" horiz-adv-x="493" d="M-23 0l310 1458h231l-307 -1458h-234z" />
<glyph unicode="m" horiz-adv-x="1820" d="M-16 0l225 1057h221l-37 -158q68 84 165 135t204 51q225 0 266 -190q160 186 373 186q129 0 213 -68.5t84 -174.5q0 -72 -31 -217l-131 -621h-233l127 610q22 100 22 152q0 61 -39 94t-106 33q-104 0 -188.5 -76t-110.5 -201l-131 -612h-234l129 610q25 115 25 162 q0 55 -37 88t-98 33q-111 0 -199 -81t-115 -204l-129 -608h-235z" />
<glyph unicode="n" horiz-adv-x="1175" d="M-29 0l226 1057h219l-35 -160q150 186 375 186q141 0 226 -72.5t85 -193.5q0 -70 -25 -180l-133 -637h-237l135 633q14 63 14 123q0 66 -42 100.5t-117 34.5q-141 0 -224.5 -93t-113.5 -239l-119 -559h-234z" />
<glyph unicode="o" horiz-adv-x="1214" d="M33 428q0 285 171 472t433 187q217 0 340 -116.5t123 -333.5q0 -276 -163 -473t-435 -197q-223 0 -346 121t-123 340zM264 426q0 -133 65.5 -207t184.5 -74q150 0 252 143.5t102 352.5q0 121 -63 195.5t-180 74.5q-152 0 -256.5 -141t-104.5 -344z" />
<glyph unicode="p" horiz-adv-x="1251" d="M-109 -391l308 1448h219l-31 -139q134 165 341 165h3q184 0 290.5 -120.5t106.5 -327.5q0 -170 -60 -317.5t-189 -247t-304 -99.5q-256 0 -335 193l-117 -555h-232zM299 406q0 -117 66.5 -185.5t181.5 -68.5q147 0 247.5 137t100.5 338q0 272 -244 272q-117 0 -200.5 -82 t-117.5 -190.5t-34 -220.5z" />
<glyph unicode="q" horiz-adv-x="1251" d="M39 397q0 174 64.5 328t199.5 257t313 103q246 0 326 -192l35 164h217l-305 -1448h-230l111 522q-135 -160 -342 -160q-182 0 -285.5 113t-103.5 313zM272 410q0 -125 59.5 -191.5t172.5 -66.5q119 0 207 82.5t124.5 194.5t36.5 226q0 111 -63 176.5t-172 65.5 q-176 0 -270.5 -150.5t-94.5 -336.5z" />
<glyph unicode="r" horiz-adv-x="757" d="M-20 0l225 1057h219l-47 -211q142 237 366 237h2q45 0 82 -6l-49 -227q-45 10 -94 10q-285 0 -371 -391l-102 -469h-231z" />
<glyph unicode="s" horiz-adv-x="1024" d="M-20 317v21h221v-6q0 -193 239 -193q96 0 154.5 40t58.5 108q0 63 -47 94t-198 84q-6 2 -11 4q-59 23 -87.5 34t-77 37.5t-72 53.5t-42 71t-18.5 99q0 147 119 234t318 87q193 0 300 -82.5t107 -232.5v-22h-221q0 96 -51 134t-154 38q-90 0 -140 -34t-50 -93 q0 -57 56 -90t185 -76q31 -8 47 -15q268 -92 269 -288q0 -178 -137.5 -266.5t-325.5 -88.5q-211 0 -326.5 91.5t-115.5 256.5z" />
<glyph unicode="t" horiz-adv-x="681" d="M39 887l37 170h180l70 315h231l-68 -315h209l-39 -170h-206l-113 -520q-20 -88 -21 -121q0 -70 103 -70q47 0 110 8l-38 -182q-74 -12 -156 -12q-260 0 -260 192q0 51 28 176l113 529h-180z" />
<glyph unicode="u" horiz-adv-x="1175" d="M35 244q0 66 22 174l136 639h235l-119 -559q-33 -150 -33 -205q0 -63 45.5 -99t122.5 -36q131 0 211 99t111 241l119 559h231l-223 -1057h-221l37 158q-133 -188 -361 -189q-143 0 -228 75t-85 200z" />
<glyph unicode="v" horiz-adv-x="1024" d="M70 1057h239l58 -496q16 -160 20 -346q78 184 137 299l285 543h248l-582 -1057h-260z" />
<glyph unicode="w" horiz-adv-x="1593" d="M63 1057h238l31 -361q24 -295 24 -448v-12q41 121 93 233l264 588h245l33 -502q10 -150 10 -311q43 121 183 415l190 398h248l-547 -1057h-246l-38 584q-6 106 -7 213q-10 -23 -37.5 -93.5t-46.5 -109.5l-270 -594h-246z" />
<glyph unicode="x" horiz-adv-x="1024" d="M-141 0l491 561l-237 496h254l100 -246q29 -66 39 -104q74 100 76 102l200 248h269l-447 -510l270 -547h-253l-115 260q-25 53 -57 135q-41 -57 -80 -104l-240 -291h-270z" />
<glyph unicode="y" horiz-adv-x="1024" d="M-129 -389l41 190q61 -16 115 -16q39 0 69.5 18.5t53 52t33 55t22.5 54.5l39 101l-178 991h241l60 -408q37 -244 51 -411q70 170 157 342l246 477h250l-657 -1186q-82 -150 -175.5 -213.5t-224.5 -63.5q-74 0 -143 17z" />
<glyph unicode="z" horiz-adv-x="985" d="M-98 0l37 172l557 561q66 66 157 144q-27 0 -115.5 -1.5t-138.5 -1.5h-299l39 183h844l-35 -170l-559 -565q-43 -43 -164 -148q86 8 277 8h350l-39 -182h-911z" />
<glyph unicode="{" horiz-adv-x="606" d="M-98 492l26 122q92 14 151.5 41t95.5 78t53.5 98.5t37.5 137.5q47 195 62 235q106 276 489 277l-24 -127q-70 -6 -121 -31t-81 -52.5t-54.5 -81.5t-36 -92t-27.5 -114q-45 -203 -78 -264q-72 -139 -266 -162q-14 -2 -33 -4q111 -27 164 -86t53 -172q0 -70 -29.5 -207 t-29.5 -186q0 -82 53 -113t144 -37l-27 -123h-16q-152 0 -249.5 76t-97.5 219q0 74 28 218.5t28 181.5q0 135 -215 168z" />
<glyph unicode="|" horiz-adv-x="454" d="M125 -438v2048h205v-2048h-205z" />
<glyph unicode="}" horiz-adv-x="606" d="M-285 -371l27 127q68 6 119 31t80.5 52.5t54 81.5t36 92t27.5 114q45 203 80 266q74 141 275 162q12 2 24 2q-111 27 -164 86t-53 172q0 70 29 207t29 186q0 82 -53.5 113t-143.5 37l27 123h18q152 0 249 -76t97 -219q0 -76 -28.5 -219.5t-28.5 -180.5q0 -135 215 -168 l-27 -122q-92 -14 -150.5 -41t-94 -78t-52 -97.5t-39.5 -138.5q-43 -180 -63 -235q-104 -276 -490 -277z" />
<glyph unicode="~" horiz-adv-x="1228" d="M33 358q14 143 85.5 239.5t205.5 96.5q61 0 276 -69q20 -6 56 -18.5t51.5 -17.5t40 -13.5t40 -11.5t35 -5t37.5 -2q109 0 133 139h133q-16 -162 -92 -248t-200 -86q-68 0 -275 66q-14 6 -59 21.5t-74 25.5t-64.5 19.5t-58.5 9.5q-53 0 -91 -40t-46 -106h-133z" />
<glyph unicode="&#xa3;" d="M-10 150q137 100 195.5 186t58.5 188q0 57 -17 129h-182l29 129h129q-45 123 -45 232q0 205 150.5 333t361.5 128q209 0 336 -119t127 -316q0 -27 -3 -49h-227q2 16 2 35q0 121 -62.5 185.5t-176.5 64.5q-119 0 -193 -77t-74 -204q0 -104 39 -213h305l-26 -129h-258 q10 -51 10 -92q0 -123 -54.5 -200.5t-170.5 -174.5q115 49 196 50q59 0 138 -23q125 -37 180 -37q14 0 28.5 2t25.5 4t26.5 8.5t22.5 9.5t23.5 12t22.5 12t24.5 14.5t24.5 15.5l74 -182q-154 -102 -297 -103q-76 0 -235 49q-123 39 -199 39q-27 0 -54.5 -6t-43 -10 t-50 -21.5t-40 -19.5t-48.5 -27z" />
<glyph unicode="&#xa9;" horiz-adv-x="1638" d="M55 729q0 315 224.5 539.5t540 224.5t539.5 -224.5t224 -539.5t-224 -539.5t-539.5 -224.5t-540 224.5t-224.5 539.5zM156 729.5q0 -274.5 194.5 -469t469 -194.5t469 194.5t194.5 469t-194.5 469t-469 194.5t-469 -194.5t-194.5 -469zM418 731q0 197 113.5 324 t289.5 127q152 0 258.5 -90.5t114.5 -227.5h-156q-16 86 -72.5 135.5t-140.5 49.5q-109 0 -174 -86t-65 -226q0 -147 67.5 -234t182.5 -87q168 0 206 174h156q-14 -133 -115.5 -220t-242.5 -87q-182 0 -302 128t-120 320z" />
<glyph unicode="&#xab;" horiz-adv-x="948" d="M53 451l51 225l359 221l-45 -215l-234 -141l166 -181l-39 -192zM453 451l51 225l360 221l-47 -215l-231 -139l164 -183l-41 -190z" />
<glyph unicode="&#xad;" horiz-adv-x="796" d="M41 459l45 211h606l-45 -211h-606z" />
<glyph unicode="&#xae;" horiz-adv-x="819" d="M98 1112q0 158 112 269.5t269.5 111.5t270 -111.5t112.5 -269.5q2 -158 -111.5 -270.5t-271 -112.5t-269.5 112.5t-112 270.5zM164 1112q0 -131 92 -224t223 -93t223.5 93t92.5 224t-92.5 223t-223.5 92t-223 -92t-92 -223zM322 903v420h149q186 0 186 -123 q0 -74 -75 -100q39 -14 53 -44t16 -95q0 -31 11 -58h-95q-8 25 -8 58q-2 63 -20.5 81.5t-77.5 18.5h-45v-158h-94zM416 1135h51q94 0 94 57q0 55 -94 55h-51v-112z" />
<glyph unicode="&#xbb;" horiz-adv-x="948" d="M8 170l45 215l232 139l-164 183l41 190l256 -281l-49 -225zM408 170l45 215l231 141l-164 181l41 192l258 -283l-53 -225z" />
<glyph unicode="&#x401;" horiz-adv-x="1290" d="M2 0l309 1458h1059l-45 -213h-805l-82 -391h748l-41 -205h-750l-92 -436h817l-47 -213h-1071zM520 1620l39 221h225l-39 -221h-225zM889 1620l39 221h225l-39 -221h-225z" />
<glyph unicode="&#x402;" horiz-adv-x="1593" d="M121 1245l45 213h1184l-45 -213h-506l-109 -506q152 166 367 166q195 0 302 -121.5t107 -316.5q0 -178 -73.5 -339t-223 -268.5t-344.5 -107.5q-18 0 -67 4l43 203q133 0 229 80t137 190.5t41 233.5q0 242 -233 242q-137 0 -235.5 -98.5t-135.5 -272.5l-72 -334h-256 l267 1245h-422z" />
<glyph unicode="&#x403;" horiz-adv-x="1153" d="M0 0l311 1458h989l-45 -213h-733l-266 -1245h-256zM625 1608l174 293h270l-276 -293h-168z" />
<glyph unicode="&#x404;" horiz-adv-x="1478" d="M74 604q0 238 92 437.5t276.5 324.5t425.5 125q246 0 399 -129t163 -342h-252q-33 260 -330 260q-178 0 -301 -116.5t-180 -299.5h626l-43 -207h-620q-2 -18 -2 -53q0 -203 97 -316.5t271 -113.5q150 0 255.5 82t148.5 233h258q-57 -248 -236.5 -386t-437.5 -138 q-287 0 -448.5 169t-161.5 470z" />
<glyph unicode="&#x405;" horiz-adv-x="1327" d="M20 451q0 16 3 30h249v-24q0 -287 334 -287q152 0 243 66.5t91 177.5q0 53 -20.5 91t-67.5 62.5t-77 34.5t-95 29q-98 27 -151.5 43t-130 52t-116.5 75t-70 104.5t-30 147.5q0 197 150.5 314.5t400.5 117.5q258 0 396.5 -111.5t138.5 -320.5v-25h-246v14q0 246 -289 246 q-139 0 -222 -58.5t-83 -154.5q0 -49 20.5 -84t66.5 -59.5t88 -38.5t116 -33q88 -23 140 -39t124 -50t109.5 -75t66.5 -107.5t29 -152.5q0 -231 -175 -349t-421 -118q-279 0 -425.5 123t-146.5 359z" />
<glyph unicode="&#x406;" horiz-adv-x="569" d="M4 0l309 1458h256l-307 -1458h-258z" />
<glyph unicode="&#x407;" horiz-adv-x="569" d="M4 0l309 1458h256l-307 -1458h-258zM156 1620l39 221h225l-39 -221h-225zM524 1620l39 221h225l-38 -221h-226z" />
<glyph unicode="&#x408;" horiz-adv-x="1099" d="M4 324q0 92 23 188h239q-25 -106 -24 -168q0 -172 184 -172q66 0 110 19.5t71.5 73.5t36.5 82t26 110q2 8 3 13t3 11l207 977h254l-197 -940q-25 -115 -43 -182.5t-57 -147t-90.5 -122.5t-134.5 -72t-195 -29q-188 0 -302 88t-114 271z" />
<glyph unicode="&#x409;" horiz-adv-x="2119" d="M-152 0l43 205q41 -25 107 -25q86 0 142.5 84t117.5 348l201 846h930l-117 -559h227q145 0 227 -19.5t144 -70.5q133 -111 133 -307q0 -178 -105.5 -319.5t-273.5 -166.5q-104 -16 -254 -16h-547l264 1245h-430l-206 -831q-57 -229 -156.5 -339t-274.5 -110 q-102 0 -172 35zM1124 213h250q205 0 275 51q47 35 76.5 94t29.5 125q0 70 -26.5 115t-79 64.5t-99.5 24.5t-118 5h-207z" />
<glyph unicode="&#x40a;" horiz-adv-x="2119" d="M-6 0l309 1458h254l-115 -549h584l115 549h254l-119 -559h227q145 0 227 -19.5t144 -70.5q133 -111 133 -307q0 -178 -104.5 -319.5t-274.5 -166.5q-104 -16 -254 -16h-545l150 692h-582l-147 -692h-256zM1128 213h250q205 0 275 51q47 35 76.5 94t29.5 125 q0 57 -19.5 97.5t-47 62t-74.5 32.5t-86 14t-96 3h-207z" />
<glyph unicode="&#x40b;" horiz-adv-x="1593" d="M119 1245l45 213h1184l-45 -213h-506l-80 -368q190 28 319 28q125 0 212 -31.5t131 -88t62.5 -115t18.5 -125.5q0 -61 -14 -127l-90 -418h-256l82 383q18 78 18 125q0 188 -250 188q-49 0 -278 -32l-142 -664h-256l267 1245h-422z" />
<glyph unicode="&#x40c;" horiz-adv-x="1402" d="M4 0l307 1458h254l-147 -676q47 47 760 676h342l-703 -600l459 -858h-289l-364 698l-267 -221l-98 -477h-254zM713 1608l174 293h270l-276 -293h-168z" />
<glyph unicode="&#x40e;" horiz-adv-x="1251" d="M-53 8l43 205q61 -33 139 -33q102 0 272 226l13 16l-277 1036h266l123 -512q29 -123 62 -293q96 166 180 289l354 516h287l-803 -1161q-111 -162 -222.5 -244t-252.5 -82q-94 0 -184 37zM481 1780q0 14 4 47h119q6 -156 184 -156q184 0 250 156h119q-70 -289 -377 -289 q-299 0 -299 242z" />
<glyph unicode="&#x40f;" horiz-adv-x="1478" d="M-6 0l309 1458h256l-262 -1237h672l258 1237h256l-305 -1458h-465l-78 -362h-256l78 362h-463z" />
<glyph unicode="&#x410;" horiz-adv-x="1402" d="M-123 0l873 1458h272l254 -1458h-260l-60 385h-577l-223 -385h-279zM485 580h445l-45 299q-41 281 -45 340q-86 -170 -215 -396z" />
<glyph unicode="&#x411;" horiz-adv-x="1441" d="M0 0l309 1458h1055l-45 -213h-799l-71 -346h348q145 0 227 -19.5t143 -70.5q133 -111 133 -307q0 -178 -105 -319.5t-273 -166.5q-104 -16 -254 -16h-668zM301 213h371q205 0 274 51q47 35 77 94t30 125q0 70 -27 115t-79 64.5t-99 24.5t-119 5h-328z" />
<glyph unicode="&#x412;" horiz-adv-x="1441" d="M2 0l307 1458h553q102 0 179 -12t153 -46t117 -104.5t41 -177.5q0 -137 -75 -230t-202 -120q102 -33 158.5 -109.5t56.5 -189.5q0 -150 -92 -276.5t-235 -165.5q-102 -27 -330 -27h-631zM293 201h328q139 0 209.5 14t117.5 53q88 74 88 197q0 68 -36.5 120t-100.5 66 q-59 14 -201 15h-305zM430 846h324q180 0 247 47q94 68 95 192q0 59 -34 101.5t-91 54.5q-53 10 -164 10h-291z" />
<glyph unicode="&#x413;" horiz-adv-x="1153" d="M0 0l311 1458h989l-45 -213h-733l-266 -1245h-256z" />
<glyph unicode="&#x414;" horiz-adv-x="1478" d="M-209 -362l123 575h141q115 150 230.5 436.5t177.5 583.5l47 225h950l-264 -1245h164l-123 -575h-248l78 362h-950l-78 -362h-248zM338 213h602l219 1032h-436l-18 -88q-55 -264 -162 -533.5t-205 -410.5z" />
<glyph unicode="&#x415;" horiz-adv-x="1290" d="M2 0l309 1458h1059l-45 -213h-805l-82 -391h748l-41 -205h-750l-92 -436h817l-47 -213h-1071z" />
<glyph unicode="&#x416;" horiz-adv-x="2136" d="M-139 0l811 854l-410 604h293l430 -661l139 661h250l-137 -651l686 651h326l-688 -635l438 -823h-299l-322 653l-217 -198l-96 -455h-250l105 487l-117 175l-610 -662h-332z" />
<glyph unicode="&#x417;" horiz-adv-x="1327" d="M20 451q0 16 3 30h249v-24q0 -287 334 -287q162 0 258.5 76t96.5 223q0 94 -63.5 143.5t-178.5 49.5h-213l37 192h202q109 0 196 77t87 181q0 84 -67.5 131t-192.5 47q-143 0 -240.5 -62.5t-128.5 -193.5h-243q43 231 211 345t407 114q231 0 370.5 -94t139.5 -266 q0 -135 -85 -226.5t-212 -122.5v-6q104 -20 167 -106t63 -203q0 -233 -178.5 -366.5t-438.5 -133.5q-281 0 -430.5 124t-149.5 358z" />
<glyph unicode="&#x418;" horiz-adv-x="1478" d="M-6 0l311 1458h256l-237 -1118l833 1118h328l-311 -1458h-256l237 1118l-833 -1118h-328z" />
<glyph unicode="&#x419;" horiz-adv-x="1478" d="M-6 0l311 1458h256l-237 -1118l833 1118h328l-311 -1458h-256l237 1118l-833 -1118h-328zM584 1780q0 14 4 47h119q6 -156 184 -156q184 0 250 156h119q-70 -289 -377 -289q-299 0 -299 242z" />
<glyph unicode="&#x41a;" horiz-adv-x="1402" d="M4 0l307 1458h254l-147 -676q47 47 760 676h342l-703 -600l459 -858h-289l-364 698l-267 -221l-98 -477h-254z" />
<glyph unicode="&#x41b;" horiz-adv-x="1441" d="M-129 0l45 197q35 -20 104 -21q90 0 161 113.5t147 433.5l174 735h950l-309 -1458h-256l264 1245h-442l-172 -694q-78 -311 -195 -446.5t-299 -135.5q-111 0 -172 31z" />
<glyph unicode="&#x41c;" horiz-adv-x="1820" d="M-2 0l311 1458h353l114 -799q35 -248 35 -393q111 254 180 375l471 817h361l-310 -1458h-243l139 637q74 340 154 614q-123 -244 -232 -438l-465 -813h-209l-131 850q-39 250 -43 399q-23 -193 -112 -631l-127 -618h-246z" />
<glyph unicode="&#x41d;" horiz-adv-x="1478" d="M-10 0l309 1458h254l-123 -588h682l123 588h254l-305 -1458h-256l137 653h-680l-139 -653h-256z" />
<glyph unicode="&#x41e;" horiz-adv-x="1554" d="M68 608q0 373 220 626t586 253q285 0 452 -169t167 -456q0 -246 -93 -448.5t-278.5 -327.5t-429.5 -125q-293 0 -458.5 172t-165.5 475zM322 604q0 -201 102 -316.5t283 -115.5q170 0 293.5 109.5t179 262t55.5 316.5q0 193 -94.5 303.5t-282.5 110.5q-174 0 -299 -102.5 t-181 -251t-56 -316.5z" />
<glyph unicode="&#x41f;" horiz-adv-x="1478" d="M-6 0l309 1458h1182l-305 -1458h-256l260 1245h-672l-262 -1245h-256z" />
<glyph unicode="&#x420;" horiz-adv-x="1366" d="M8 0l311 1458h535q145 0 227 -19.5t144 -70.5q133 -111 133 -307q0 -178 -104.5 -317.5t-274.5 -163.5q-104 -16 -254 -17h-342l-119 -563h-256zM428 768h301q205 0 275 51q47 35 76.5 94.5t29.5 124.5q0 70 -26.5 115t-79 64.5t-99.5 24.5t-119 5h-258z" />
<glyph unicode="&#x421;" horiz-adv-x="1478" d="M74 604q0 238 92 437.5t276.5 324.5t425.5 125q254 0 408 -135t154 -359v-26h-248q-6 160 -88 234.5t-246 74.5q-125 0 -227.5 -62.5t-165 -162t-95 -216t-32.5 -235.5q0 -203 97 -316.5t271 -113.5q156 0 261.5 87t146.5 247h258q-53 -254 -234.5 -398.5t-443.5 -144.5 q-287 0 -448.5 169t-161.5 470z" />
<glyph unicode="&#x422;" horiz-adv-x="1214" d="M117 1247l45 211h1200l-45 -211h-467l-262 -1247h-256l262 1247h-477z" />
<glyph unicode="&#x423;" horiz-adv-x="1251" d="M-53 8l43 205q61 -33 139 -33q102 0 272 226l13 16l-277 1036h266l123 -512q29 -123 62 -293q96 166 180 289l354 516h287l-803 -1161q-111 -162 -222.5 -244t-252.5 -82q-94 0 -184 37z" />
<glyph unicode="&#x424;" horiz-adv-x="1652" d="M68 674q0 158 62.5 282.5t170 200.5t240.5 116t282 44l31 141h256l-31 -141q227 -25 369.5 -159t142.5 -351q0 -158 -62.5 -283t-170 -200.5t-240.5 -115.5t-282 -44l-35 -164h-256l35 164q-227 25 -369.5 159t-142.5 351zM326 678q0 -244 301 -293l149 711 q-213 -10 -331.5 -116t-118.5 -302zM883 385q213 10 331.5 115.5t118.5 302.5q0 244 -301 293z" />
<glyph unicode="&#x425;" horiz-adv-x="1327" d="M-109 0l652 766l-346 692h278l129 -276q23 -49 62 -142.5t47 -113.5q72 98 223 286l199 246h299l-603 -713l367 -745h-278l-113 244q-115 248 -148 329q-23 -23 -69.5 -86t-59.5 -79l-331 -408h-308z" />
<glyph unicode="&#x426;" horiz-adv-x="1503" d="M-6 0l309 1458h256l-264 -1245h668l264 1245h256l-264 -1245h159l-123 -575h-247l77 362h-1091z" />
<glyph unicode="&#x427;" horiz-adv-x="1402" d="M160 952q0 61 14 123l80 383h256l-72 -338q-14 -61 -14 -116q0 -178 250 -179q170 0 348 35l127 598h256l-309 -1458h-256l135 645q-242 -41 -391 -41q-125 0 -212 31t-131 84t-62.5 110.5t-18.5 122.5z" />
<glyph unicode="&#x428;" horiz-adv-x="2197" d="M-6 0l309 1458h256l-264 -1245h565l264 1245h256l-264 -1245h565l265 1245h256l-310 -1458h-1898z" />
<glyph unicode="&#x429;" horiz-adv-x="2222" d="M-8 0l309 1458h256l-264 -1245h565l264 1245h256l-264 -1245h565l265 1245h256l-265 -1245h160l-123 -575h-248l78 362h-1810z" />
<glyph unicode="&#x42a;" horiz-adv-x="1665" d="M127 1245l45 213h694l-118 -559h299q145 0 227 -19.5t143 -70.5q133 -110 133 -307q0 -178 -104.5 -319.5t-274.5 -166.5q-104 -16 -253 -16h-619l266 1245h-438zM600 213h322q205 0 274 51q47 35 77 94t30 125q0 70 -27 115t-79 64.5t-99 24.5t-119 5h-279z" />
<glyph unicode="&#x42b;" horiz-adv-x="1835" d="M0 0l309 1458h256l-116 -559h299q145 0 227 -19.5t143 -70.5q133 -110 133 -307q0 -178 -105.5 -319.5t-273.5 -166.5q-104 -16 -254 -16h-618zM301 213h322q205 0 274 51q47 35 77 94t30 125q0 70 -27 115t-79 64.5t-99 24.5t-119 5h-279zM1274 0l309 1458h256 l-309 -1458h-256z" />
<glyph unicode="&#x42c;" horiz-adv-x="1366" d="M0 0l309 1458h256l-116 -559h299q145 0 227 -19.5t143 -70.5q133 -110 133 -307q0 -178 -105.5 -319.5t-273.5 -166.5q-104 -16 -254 -16h-618zM301 213h322q205 0 274 51q47 35 77 94t30 125q0 70 -27 115t-79 64.5t-99 24.5t-119 5h-279z" />
<glyph unicode="&#x42d;" horiz-adv-x="1478" d="M66 459v26h247q6 -160 88 -234.5t246 -74.5q195 0 324 138.5t174 342.5h-629l43 207h608q-4 197 -101 307.5t-267 110.5q-281 0 -383 -260h-264q70 221 242.5 345t416.5 124q287 0 448.5 -169t161.5 -470q0 -238 -92 -437.5t-276.5 -324.5t-425.5 -125 q-254 0 -407.5 135.5t-153.5 358.5z" />
<glyph unicode="&#x42e;" horiz-adv-x="2084" d="M-6 0l309 1458h254l-123 -588h244q68 276 264.5 446.5t482.5 170.5q276 0 437 -169t161 -456q0 -246 -90 -449.5t-268 -327.5t-414 -124q-283 0 -443.5 172t-160.5 475q0 31 2 45h-260l-139 -653h-256zM899 604q0 -203 94 -317.5t262 -114.5q123 0 223.5 63.5t162 165 t94 221t32.5 238.5q0 195 -86 304.5t-262 109.5q-164 0 -285.5 -102.5t-178 -252t-56.5 -315.5z" />
<glyph unicode="&#x42f;" horiz-adv-x="1402" d="M-156 0l586 623q-123 31 -191.5 128t-68.5 230q0 172 99.5 304t260.5 157q104 16 252 16h631l-309 -1458h-256l127 600h-266l-541 -600h-324zM424 993q0 -66 23.5 -106.5t72.5 -59t94 -23.5t119 -5h285l94 450h-321q-199 0 -267 -49q-100 -76 -100 -207z" />
<glyph unicode="&#x430;" d="M-18 258q0 119 69.5 200t163.5 113.5t211 40.5q4 0 60.5 3t91 6.5t82 11.5t69.5 22q55 33 55 125q0 131 -190 131q-211 0 -254 -174h-221q66 344 485 344q188 0 297 -69.5t109 -190.5q0 -72 -27 -186l-72 -320q-23 -98 -22 -116q0 -41 47 -41q29 0 90 10l-37 -170 q-88 -25 -153 -25q-78 0 -120 29t-48 104q-143 -141 -357 -141q-150 0 -239.5 80t-89.5 213zM217 281q0 -72 48 -112t134 -40q123 0 196 64.5t95 152.5l47 176q-20 -16 -66 -28.5t-78 -16.5t-93 -10l-60 -4q-223 -20 -223 -182z" />
<glyph unicode="&#x431;" horiz-adv-x="1214" d="M59 453q0 186 72 411.5t176 354.5q160 201 459 221q23 2 59.5 4t51 3t37 5t33.5 8t22.5 13.5t19.5 21.5h234q-23 -84 -64 -135t-115.5 -77t-124 -33t-157.5 -15q-16 -2 -27.5 -3t-23.5 -1q-154 -12 -265.5 -121t-158.5 -285h6q131 234 397 234q178 0 293 -116t115 -320 q0 -272 -159 -464t-425 -192q-229 0 -342 131t-113 355zM291 412q0 -127 62.5 -197t172.5 -70q141 0 240.5 138.5t99.5 343.5q0 115 -59 185.5t-170 70.5q-143 0 -244.5 -136t-101.5 -335z" />
<glyph unicode="&#x432;" d="M-20 0l221 1057h487q74 0 130 -9.5t110.5 -33t84 -74.5t29.5 -129q0 -100 -53 -168t-145 -86q156 -49 155 -217q0 -109 -66.5 -201t-170.5 -121q-72 -18 -240 -18h-542zM244 178h252q168 0 223 43q55 49 55 127q0 43 -17.5 70.5t-55 38t-63.5 12.5t-73 2h-14h-244z M342 629h248q121 0 166 30q59 41 59 121q0 35 -15.5 57.5t-46 29.5t-51 9.5t-59.5 2.5h-14h-234z" />
<glyph unicode="&#x433;" horiz-adv-x="872" d="M-16 0l225 1057h739l-39 -183h-506l-186 -874h-233z" />
<glyph unicode="&#x434;" horiz-adv-x="1228" d="M-195 -336l111 518h133q178 279 285 756l26 119h795l-186 -875h141l-111 -518h-221l72 336h-752l-71 -336h-222zM293 182h446l148 695h-338l-17 -72q-39 -170 -111.5 -352.5t-127.5 -270.5z" />
<glyph unicode="&#x435;" d="M20 430q0 281 168 468t418 187q207 0 326 -120.5t119 -331.5q0 -70 -15 -166h-786q-4 -57 -4 -61q0 -125 67.5 -196t184.5 -71q190 0 262 189h231q-43 -176 -181 -269.5t-329 -93.5q-217 0 -339 124t-122 341zM276 627h553v28q0 125 -59 190.5t-172 65.5 q-117 0 -202 -74.5t-120 -209.5z" />
<glyph unicode="&#x436;" horiz-adv-x="1554" d="M-162 0l574 651l-277 406h256l277 -459l98 459h225l-92 -424l451 424h290l-477 -418l275 -639h-258l-185 492l-153 -136l-76 -356h-225l73 352l-86 127l-389 -479h-301z" />
<glyph unicode="&#x437;" horiz-adv-x="1062" d="M-20 319v21h221v-6q0 -193 239 -193q102 0 179 52.5t77 148.5q0 123 -186 123h-137l37 170h98q236 0 235 164q0 111 -172 110q-94 0 -158.5 -43t-78.5 -114h-236q72 336 494 335q389 0 389 -256q0 -92 -61.5 -163.5t-155.5 -92.5v-4q68 -14 118 -73.5t50 -151.5 q0 -184 -146.5 -279.5t-343.5 -95.5q-225 0 -343.5 90.5t-118.5 257.5z" />
<glyph unicode="&#x438;" horiz-adv-x="1175" d="M-25 0l226 1057h233l-164 -770h6l551 770h303l-225 -1057h-233l164 770h-7l-548 -770h-306z" />
<glyph unicode="&#x439;" horiz-adv-x="1175" d="M-25 0l226 1057h233l-164 -770h6l551 770h303l-225 -1057h-233l164 770h-7l-548 -770h-306zM387 1446q0 6 1 22.5t1 24.5h119q6 -156 184 -156q186 0 250 156h119q-68 -289 -375 -289q-299 0 -299 242z" />
<glyph unicode="&#x43a;" horiz-adv-x="1062" d="M-18 0l225 1057h229l-100 -465l495 465h295l-477 -418l275 -639h-258l-189 487l-201 -176l-65 -311h-229z" />
<glyph unicode="&#x43b;" horiz-adv-x="1175" d="M-109 2l37 178q20 -10 72 -10q145 0 199 219l163 668h771l-224 -1057h-233l184 874h-311l-125 -507q-51 -211 -152.5 -301.5t-253.5 -90.5q-74 0 -127 27z" />
<glyph unicode="&#x43c;" horiz-adv-x="1441" d="M-25 0l226 1057h286l125 -850h4l478 850h305l-225 -1057h-226l150 702h-4l-404 -702h-231l-105 702h-4l-149 -702h-226z" />
<glyph unicode="&#x43d;" horiz-adv-x="1175" d="M-25 0l226 1057h233l-88 -414h463l88 414h233l-225 -1057h-233l98 459h-463l-98 -459h-234z" />
<glyph unicode="&#x43e;" horiz-adv-x="1214" d="M33 428q0 285 171 472t433 187q217 0 340 -116.5t123 -333.5q0 -276 -163 -473t-435 -197q-223 0 -346 121t-123 340zM264 426q0 -133 65.5 -207t184.5 -74q150 0 252 143.5t102 352.5q0 121 -63 195.5t-180 74.5q-152 0 -256.5 -141t-104.5 -344z" />
<glyph unicode="&#x43f;" horiz-adv-x="1175" d="M-25 0l226 1057h929l-225 -1057h-233l186 874h-463l-186 -874h-234z" />
<glyph unicode="&#x440;" horiz-adv-x="1251" d="M-109 -391l308 1448h219l-31 -139q135 166 344 165q184 0 290.5 -120.5t106.5 -327.5q0 -170 -60 -317.5t-189 -247t-304 -99.5q-256 0 -335 193l-117 -555h-232zM299 406q0 -117 66.5 -185.5t181.5 -68.5q147 0 247.5 137t100.5 338q0 272 -244 272q-117 0 -200.5 -82 t-117.5 -190.5t-34 -220.5z" />
<glyph unicode="&#x441;" d="M47 424q0 274 164 467.5t436 193.5q193 0 308.5 -99t115.5 -265v-14h-227v8q0 90 -54.5 141t-152.5 51q-119 0 -203 -77.5t-118.5 -183t-34.5 -222.5q0 -276 241 -277q92 0 160 56.5t100 161.5h234q-53 -193 -184.5 -294.5t-327.5 -101.5q-217 0 -337 120t-120 335z" />
<glyph unicode="&#x442;" horiz-adv-x="950" d="M45 874l39 183h930l-39 -183h-348l-187 -874h-233l186 874h-348z" />
<glyph unicode="&#x443;" horiz-adv-x="1024" d="M-129 -389l41 190q61 -16 115 -16q39 0 69.5 18.5t53 52t33 55t22.5 54.5l39 101l-178 991h241l60 -408q37 -244 51 -411q70 170 157 342l246 477h250l-657 -1186q-82 -150 -175.5 -213.5t-224.5 -63.5q-74 0 -143 17z" />
<glyph unicode="&#x444;" horiz-adv-x="1691" d="M16 369q0 123 35 247.5t100.5 231t173 173t240.5 66.5q66 0 128.5 -32.5t82.5 -75.5h6l103 479h233l-102 -479h6q41 43 110.5 75.5t135.5 32.5q156 0 241.5 -98t85.5 -291q0 -172 -61 -333.5t-194.5 -277.5t-311.5 -116q-57 0 -116.5 30t-82.5 69h-6l-98 -461h-233 l98 461h-6q-41 -41 -106.5 -70t-123.5 -29q-172 0 -255 113t-83 285zM248 377q0 -225 178 -225q72 0 129.5 34.5t75.5 81.5l110 514q-6 66 -54 95.5t-109 29.5q-111 0 -190 -94t-109.5 -210t-30.5 -226zM864 266q0 -47 43 -80.5t113 -33.5q113 0 194.5 97t115.5 216.5 t34 230.5q0 211 -172 211q-61 0 -122.5 -29.5t-94.5 -95.5l-111 -514v-2z" />
<glyph unicode="&#x445;" horiz-adv-x="1024" d="M-141 0l491 561l-237 496h254l100 -246q29 -66 39 -104q74 100 76 102l200 248h269l-447 -510l270 -547h-253l-115 260q-25 53 -57 135q-41 -57 -80 -104l-240 -291h-270z" />
<glyph unicode="&#x446;" horiz-adv-x="1208" d="M-25 0l226 1057h233l-186 -875h463l186 875h233l-186 -875h141l-110 -518h-225l71 336h-846z" />
<glyph unicode="&#x447;" horiz-adv-x="1099" d="M72 676q0 37 10 88l61 293h234l-58 -266q-8 -35 -8 -74q0 -127 144 -127q57 0 145 16.5t133 34.5l88 416h234l-226 -1057h-233l98 457q-188 -55 -336 -56q-133 0 -209.5 75t-76.5 200z" />
<glyph unicode="&#x448;" horiz-adv-x="1667" d="M-25 0l226 1057h233l-186 -875h360l187 875h233l-186 -875h360l187 875h233l-225 -1057h-1422z" />
<glyph unicode="&#x449;" horiz-adv-x="1699" d="M-25 0l226 1057h233l-186 -875h360l187 875h233l-186 -875h360l187 875h233l-186 -875h141l-111 -518h-225l72 336h-1338z" />
<glyph unicode="&#x44a;" horiz-adv-x="1290" d="M51 874l39 183h533l-80 -385h268q193 0 274 -68q100 -82 101 -229q0 -133 -78 -238.5t-205 -124.5q-74 -12 -186 -12h-551l186 874h-301zM440 182h252q141 0 187 33q69 49 69 143q0 84 -53 109t-162 25h-227z" />
<glyph unicode="&#x44b;" horiz-adv-x="1478" d="M-31 0l226 1057h229l-80 -385h199q193 0 276 -68q101 -82 101 -229q0 -133 -79 -238.5t-206 -124.5q-70 -12 -184 -12h-482zM242 182h182q143 0 188 33q70 49 70 143q0 84 -54.5 109t-162.5 25h-158zM981 0l225 1057h234l-226 -1057h-233z" />
<glyph unicode="&#x44c;" horiz-adv-x="1099" d="M-25 0l226 1057h229l-80 -385h268q193 0 277 -68q100 -82 100 -229q0 -133 -78.5 -238.5t-205.5 -124.5q-72 -12 -185 -12h-551zM248 182h252q143 0 188 33q70 49 70 143q0 84 -54.5 109t-162.5 25h-228z" />
<glyph unicode="&#x44d;" d="M47 334v14h227v-8q0 -90 54.5 -141.5t152.5 -51.5q133 0 217 89.5t119 226.5h-401l35 164h387q0 281 -242 280q-168 0 -246 -176h-235q59 172 186 263t313 91q217 0 337 -119.5t120 -334.5q0 -274 -164 -468t-436 -194q-193 0 -308.5 99.5t-115.5 265.5z" />
<glyph unicode="&#x44e;" horiz-adv-x="1642" d="M-25 0l226 1057h233l-88 -418h189q55 203 203.5 325.5t348.5 122.5q207 0 326 -116.5t119 -333.5q0 -276 -156.5 -473t-419.5 -197q-213 0 -331.5 121t-118.5 340q0 6 1 17.5t1 17.5h-201l-98 -463h-234zM737 426q0 -133 59.5 -207t168.5 -74q141 0 240.5 144.5 t99.5 351.5q0 121 -57.5 195.5t-166.5 74.5q-141 0 -242.5 -142t-101.5 -343z" />
<glyph unicode="&#x44f;" d="M-111 0l406 453q-88 20 -138.5 91.5t-50.5 166.5q0 125 73 220t190 113q70 12 182 13h543l-224 -1057h-233l92 430h-182l-369 -430h-289zM344 721q0 -66 43 -86.5t148 -20.5h233l55 260h-248q-133 1 -172 -28q-59 -41 -59 -125z" />
<glyph unicode="&#x451;" d="M20 430q0 281 168 468t418 187q207 0 326 -120.5t119 -331.5q0 -70 -15 -166h-786q-4 -57 -4 -61q0 -125 67.5 -196t184.5 -71q190 0 262 189h231q-43 -176 -181 -269.5t-329 -93.5q-217 0 -339 124t-122 341zM276 627h553v28q0 125 -59 190.5t-172 65.5 q-117 0 -202 -74.5t-120 -209.5zM342 1219l39 221h225l-39 -221h-225zM711 1219l39 221h225l-39 -221h-225z" />
<glyph unicode="&#x452;" horiz-adv-x="1175" d="M-12 0l188 883h-106l36 174h107l84 401h233l-84 -401h465l-37 -174h-464l-64 -291h4q152 168 363 168q139 0 223 -75t84 -198q0 -66 -45 -276q-55 -256 -255 -424t-476 -178l43 203q174 20 296 128.5t156 268.5q35 174 35 215q0 145 -162 145q-137 0 -222 -98t-118 -244 l-51 -227h-233z" />
<glyph unicode="&#x453;" horiz-adv-x="872" d="M-16 0l225 1057h739l-39 -183h-506l-186 -874h-233zM408 1202l198 295h283l-309 -295h-172z" />
<glyph unicode="&#x454;" d="M47 424q0 274 164 467.5t436 193.5q190 0 305 -96t119 -258h-227q-4 84 -58.5 130t-148.5 46q-123 0 -204 -76.5t-122 -199.5h408l-35 -164h-401q-2 -14 -2 -43q0 -276 241 -277q92 0 160 56.5t100 161.5h234q-53 -193 -184.5 -294.5t-327.5 -101.5q-217 0 -337 120 t-120 335z" />
<glyph unicode="&#x455;" horiz-adv-x="1024" d="M-20 317v21h221v-6q0 -193 239 -193q96 0 154.5 40t58.5 108q0 63 -47 94t-198 84q-6 2 -11 4q-59 23 -87.5 34t-77 37.5t-72 53.5t-42 71t-18.5 99q0 147 119 234t318 87q193 0 300 -82.5t107 -232.5v-22h-221q0 96 -51 134t-154 38q-90 0 -140 -34t-50 -93 q0 -57 56 -90t185 -76q31 -8 47 -15q268 -92 269 -288q0 -178 -137.5 -266.5t-325.5 -88.5q-211 0 -326.5 91.5t-115.5 256.5z" />
<glyph unicode="&#x456;" horiz-adv-x="493" d="M-23 0l224 1057h233l-223 -1057h-234zM240 1235l49 229h231l-49 -229h-231z" />
<glyph unicode="&#x457;" horiz-adv-x="493" d="M-23 0l224 1057h233l-223 -1057h-234zM35 1219l39 221h225l-39 -221h-225zM403 1219l39 221h226l-39 -221h-226z" />
<glyph unicode="&#x458;" horiz-adv-x="493" d="M-268 -395l41 188q39 -8 65 -8q55 0 81 29.5t48 142.5l232 1100h231l-213 -1024q-2 -6 -4 -17q-47 -225 -90 -297q-76 -125 -270 -125q-61 0 -121 11zM236 1233l49 231h231l-47 -231h-233z" />
<glyph unicode="&#x459;" horiz-adv-x="1673" d="M-109 2l37 178q20 -10 72 -10q145 0 199 219l163 668h732l-78 -385h182q195 0 277 -68q100 -82 100 -229q0 -133 -78 -238.5t-207 -124.5q-70 -12 -184 -12h-467l182 874h-272l-125 -507q-51 -211 -152.5 -301.5t-253.5 -90.5q-74 0 -127 27zM913 182h166q143 0 189 33 q69 49 69 143q0 84 -53 109t-162 25h-145z" />
<glyph unicode="&#x45a;" horiz-adv-x="1673" d="M-25 0l226 1057h233l-82 -385h402l82 385h233l-80 -385h205q193 0 274 -68q100 -82 101 -229q0 -133 -78 -238.5t-205 -124.5q-74 -12 -186 -12h-488l103 492h-402l-104 -492h-234zM887 182h186q143 0 189 33q69 49 69 143q0 84 -53 109t-162 25h-164z" />
<glyph unicode="&#x45b;" horiz-adv-x="1175" d="M-12 0l188 883h-106l36 174h107l84 401h233l-84 -401h465l-37 -174h-464l-64 -291h4q152 168 363 168q139 0 223 -75t84 -198q0 -63 -25 -176l-67 -311h-236l64 283q18 82 18 141q0 145 -162 145q-137 0 -222 -98t-118 -244l-51 -227h-233z" />
<glyph unicode="&#x45c;" horiz-adv-x="1062" d="M-18 0l225 1057h229l-100 -465l495 465h295l-477 -418l275 -639h-258l-189 487l-201 -176l-65 -311h-229zM510 1202l199 295h282l-309 -295h-172z" />
<glyph unicode="&#x45e;" horiz-adv-x="1024" d="M-129 -389l41 190q61 -16 115 -16q39 0 69.5 18.5t53 52t33 55t22.5 54.5l39 101l-178 991h241l60 -408q37 -244 51 -411q70 170 157 342l246 477h250l-657 -1186q-82 -150 -175.5 -213.5t-224.5 -63.5q-74 0 -143 17zM285 1446q0 6 1 22.5t1 24.5h119q6 -156 184 -156 q186 0 250 156h118q-68 -289 -374 -289q-299 0 -299 242z" />
<glyph unicode="&#x45f;" horiz-adv-x="1175" d="M-25 0l226 1057h233l-186 -875h463l186 875h233l-225 -1057h-350l-72 -336h-233l72 336h-347z" />
<glyph unicode="&#x490;" horiz-adv-x="1153" d="M0 0l309 1458h733l70 322h256l-117 -543h-733l-262 -1237h-256z" />
<glyph unicode="&#x491;" horiz-adv-x="872" d="M-16 0l225 1057h510l65 315h234l-105 -500h-510l-186 -872h-233z" />
<glyph unicode="&#x2000;" horiz-adv-x="950" />
<glyph unicode="&#x2001;" horiz-adv-x="1901" />
<glyph unicode="&#x2002;" horiz-adv-x="950" />
<glyph unicode="&#x2003;" horiz-adv-x="1901" />
<glyph unicode="&#x2004;" horiz-adv-x="633" />
<glyph unicode="&#x2005;" horiz-adv-x="475" />
<glyph unicode="&#x2006;" horiz-adv-x="316" />
<glyph unicode="&#x2007;" horiz-adv-x="316" />
<glyph unicode="&#x2008;" horiz-adv-x="237" />
<glyph unicode="&#x2009;" horiz-adv-x="380" />
<glyph unicode="&#x200a;" horiz-adv-x="105" />
<glyph unicode="&#x2010;" horiz-adv-x="796" d="M41 459l45 211h606l-45 -211h-606z" />
<glyph unicode="&#x2011;" horiz-adv-x="796" d="M41 459l45 211h606l-45 -211h-606z" />
<glyph unicode="&#x2012;" horiz-adv-x="796" d="M41 459l45 211h606l-45 -211h-606z" />
<glyph unicode="&#x2013;" horiz-adv-x="1024" d="M-43 461l43 205h1024l-43 -205h-1024z" />
<glyph unicode="&#x2014;" horiz-adv-x="2048" d="M-41 461l43 205h2048l-43 -205h-2048z" />
<glyph unicode="&#x2018;" horiz-adv-x="569" d="M182 899l47 231q35 166 117 261.5t238 95.5l-27 -123q-86 -8 -120 -55t-52 -140h131l-57 -270h-277z" />
<glyph unicode="&#x2019;" horiz-adv-x="569" d="M178 870l27 123q86 8 119.5 55.5t52.5 139.5h-131l57 270h277l-48 -231q-35 -166 -116.5 -261.5t-237.5 -95.5z" />
<glyph unicode="&#x201a;" horiz-adv-x="569" d="M-63 -317l26 122q86 8 120 55.5t52 139.5h-131l57 270h277l-47 -231q-35 -166 -117 -261t-237 -95z" />
<glyph unicode="&#x201c;" horiz-adv-x="909" d="M154 905l47 228q33 162 107 253t224 97l-24 -117q-78 -12 -113 -59t-53 -140h123l-55 -262h-256zM557 905l47 228q33 162 107.5 253t224.5 97l-25 -117q-78 -12 -112.5 -59t-53.5 -140h123l-55 -262h-256z" />
<glyph unicode="&#x201d;" horiz-adv-x="909" d="M154 881l24 116q78 12 113 59.5t53 139.5h-123l55 262h256l-47 -227q-33 -162 -107.5 -253t-223.5 -97zM557 881l25 116q78 12 112.5 59.5t53.5 139.5h-123l55 262h256l-47 -227q-33 -162 -107.5 -253t-224.5 -97z" />
<glyph unicode="&#x201e;" horiz-adv-x="909" d="M-88 -315l25 116q78 12 112.5 59.5t52.5 139.5h-122l55 262h256l-47 -227q-33 -162 -108 -253t-224 -97zM315 -315l25 116q78 12 112.5 59.5t53.5 139.5h-123l55 262h256l-47 -227q-33 -162 -107.5 -253t-224.5 -97z" />
<glyph unicode="&#x2022;" horiz-adv-x="1024" d="M147 729.5q0 151.5 106.5 258t258.5 106.5t258.5 -106.5t106.5 -258t-106.5 -258t-258.5 -106.5t-258.5 106.5t-106.5 258z" />
<glyph unicode="&#x2026;" horiz-adv-x="2048" d="M70 0l57 266h240l-58 -266h-239zM752 0l57 266h240l-58 -266h-239zM1434 0l57 266h240l-58 -266h-239z" />
<glyph unicode="&#x202f;" horiz-adv-x="380" />
<glyph unicode="&#x2039;" horiz-adv-x="530" d="M39 451l51 225l359 221l-43 -215l-236 -139l166 -183l-41 -190z" />
<glyph unicode="&#x203a;" horiz-adv-x="530" d="M8 170l45 217l234 139l-166 181l43 192l256 -285l-51 -221z" />
<glyph unicode="&#x205f;" horiz-adv-x="475" />
<glyph unicode="&#x2122;" horiz-adv-x="2027" d="M266 1346v112h613v-112h-234v-617h-143v617h-236zM997 729v729h215l185 -514l182 514h211v-729h-129v600l-211 -600h-111l-211 600v-600h-131z" />
<glyph unicode="&#x25fc;" horiz-adv-x="1054" d="M0 0v1055h1055v-1055h-1055z" />
</font>
</defs>
</svg>
